<svg width="11" height="9" viewBox="0 0 11 9" fill="none" xmlns="http://www.w3.org/2000/svg">
<path d="M7.16672 2.11649C7.16668 2.3672 7.06753 2.60774 6.89088 2.78565C6.48422 3.19565 6.08963 3.62315 5.66755 4.01815C5.62043 4.06108 5.55862 4.08429 5.49489 4.08297C5.43115 4.08165 5.37036 4.05591 5.32505 4.01107L4.10922 2.78607C3.93238 2.60809 3.83313 2.36738 3.83313 2.11649C3.83313 1.86559 3.93238 1.62489 4.10922 1.4469C4.19741 1.35806 4.3023 1.28755 4.41787 1.23944C4.53343 1.19132 4.65737 1.16655 4.78255 1.16655C4.90773 1.16655 5.03167 1.19132 5.14723 1.23944C5.2628 1.28755 5.3677 1.35806 5.45588 1.4469L5.50005 1.49149L5.54422 1.4469C5.67659 1.3131 5.84579 1.22171 6.03027 1.18437C6.21475 1.14704 6.40617 1.16544 6.58016 1.23724C6.75414 1.30904 6.90283 1.431 7.00728 1.58757C7.11174 1.74415 7.16724 1.92827 7.16672 2.11649Z" stroke="#F21B1B" stroke-width="0.8" stroke-linejoin="round"/>
<path d="M8 7.83333L9.59333 6.24C9.64023 6.19316 9.66661 6.12962 9.66667 6.06333V3.875C9.66667 3.70924 9.60082 3.55027 9.48361 3.43306C9.3664 3.31585 9.20743 3.25 9.04167 3.25C8.87591 3.25 8.71694 3.31585 8.59973 3.43306C8.48251 3.55027 8.41667 3.70924 8.41667 3.875V5.75" stroke="#1A1F2B" stroke-width="0.8" stroke-linecap="round" stroke-linejoin="round"/>
<path d="M8.00004 6.16667L8.35754 5.80917C8.3764 5.79047 8.39134 5.7682 8.4015 5.74366C8.41166 5.71912 8.41683 5.69281 8.41671 5.66625C8.41642 5.62883 8.40585 5.59221 8.38615 5.5604C8.36646 5.52858 8.3384 5.50279 8.30504 5.48583L8.12046 5.39375C7.96408 5.31556 7.78707 5.28854 7.61448 5.3165C7.44189 5.34447 7.28248 5.42601 7.15879 5.54958L6.78587 5.9225C6.62958 6.07874 6.54175 6.29067 6.54171 6.51167V7.83333M3.00004 7.83333L1.40671 6.24C1.35981 6.19316 1.33343 6.12962 1.33337 6.06333V3.875C1.33337 3.70924 1.39922 3.55027 1.51643 3.43306C1.63364 3.31585 1.79261 3.25 1.95837 3.25C2.12413 3.25 2.28311 3.31585 2.40032 3.43306C2.51753 3.55027 2.58337 3.70924 2.58337 3.875V5.75" stroke="#399B0A" stroke-width="0.8" stroke-linecap="round" stroke-linejoin="round"/>
<path d="M8.00008 6.16656L8.35758 5.80906C8.37644 5.79036 8.39138 5.76809 8.40154 5.74355C8.4117 5.71901 8.41687 5.6927 8.41675 5.66614C8.41645 5.62872 8.40588 5.59211 8.38619 5.56029C8.3665 5.52847 8.33844 5.50268 8.30508 5.48573L8.1205 5.39364C7.96412 5.31545 7.78711 5.28843 7.61452 5.3164C7.44193 5.34436 7.28252 5.4259 7.15883 5.54948L6.78591 5.92239C6.62962 6.07864 6.5418 6.29056 6.54175 6.51156V7.83323" stroke="#1A1F2B" stroke-width="0.8" stroke-linecap="round" stroke-linejoin="round"/>
<path d="M3.00004 6.16656L2.64254 5.80906C2.60521 5.77078 2.58403 5.71961 2.58337 5.66614C2.58337 5.58989 2.62671 5.52031 2.69504 5.48573L2.87962 5.39364C3.036 5.31545 3.21301 5.28843 3.3856 5.3164C3.55819 5.34436 3.71761 5.4259 3.84129 5.54948L4.21421 5.92239C4.3705 6.07864 4.45833 6.29056 4.45837 6.51156V7.83323" stroke="#399B0A" stroke-width="0.8" stroke-linecap="round" stroke-linejoin="round"/>
</svg>
