<?xml version="1.0" encoding="UTF-8" standalone="no"?>
<!DOCTYPE svg PUBLIC "-//W3C//DTD SVG 1.1//EN" "http://www.w3.org/Graphics/SVG/1.1/DTD/svg11.dtd">
<svg width="100%" height="100%" viewBox="0 0 407 198" version="1.1" xmlns="http://www.w3.org/2000/svg" xmlns:xlink="http://www.w3.org/1999/xlink" xml:space="preserve" xmlns:serif="http://www.serif.com/" style="fill-rule:evenodd;clip-rule:evenodd;stroke-linejoin:round;stroke-miterlimit:2;">
    <g transform="matrix(1,0,0,1,-46.716,-133.765)">
        <g transform="matrix(1,0,0,1,-0.0589943,-10.1047)">
            <path d="M245.216,143.87C330.971,143.87 400.543,213.442 400.543,299.197L90.007,299.197C90.007,213.442 159.461,143.87 245.216,143.87Z" style="fill:rgb(26,31,43);"/>
        </g>
        <g transform="matrix(1,0,0,1,-0.0589943,-10.1047)">
            <path d="M121.545,224.427C162.887,224.427 196.433,257.856 196.433,299.197L46.775,299.197C46.775,257.856 80.203,224.427 121.545,224.427Z" style="fill:rgb(26,31,43);"/>
        </g>
        <g transform="matrix(1,0,0,1,-0.0589943,-10.1047)">
            <path d="M378.455,224.427C419.797,224.427 453.343,257.856 453.343,299.197L303.685,299.197C303.685,257.856 337.231,224.427 378.455,224.427Z" style="fill:rgb(26,31,43);"/>
        </g>
        <g transform="matrix(1,0,0,1,-0.0589943,-10.1047)">
            <path d="M309.355,169.265C310.772,169.265 311.954,170.447 311.954,171.864C311.954,173.281 310.772,174.463 309.355,174.463C307.938,174.463 306.756,173.281 306.756,171.864C306.756,170.447 307.938,169.265 309.355,169.265Z" style="fill:white;"/>
        </g>
        <g transform="matrix(1,0,0,1,-0.0589943,-10.1047)">
            <path d="M358.375,211.434C359.792,211.434 360.973,212.615 360.973,214.033C360.973,215.45 359.792,216.631 358.375,216.631C356.957,216.631 355.776,215.45 355.776,214.033C355.776,212.615 356.957,211.434 358.375,211.434Z" style="fill:white;"/>
        </g>
        <g transform="matrix(1,0,0,1,-0.0589943,-10.1047)">
            <path d="M301.323,219.702C302.74,219.702 303.922,220.883 303.922,222.301C303.922,223.837 302.74,224.9 301.323,224.9C299.905,224.9 298.724,223.837 298.724,222.301C298.724,220.883 299.905,219.702 301.323,219.702Z" style="fill:white;"/>
        </g>
        <g transform="matrix(1,0,0,1,-0.0589943,-10.1047)">
            <path d="M182.731,164.895C184.148,164.895 185.33,165.958 185.33,167.493C185.33,168.911 184.148,169.974 182.731,169.974C181.313,169.974 180.132,168.911 180.132,167.493C180.132,165.958 181.313,164.895 182.731,164.895Z" style="fill:white;"/>
        </g>
        <g transform="matrix(1,0,0,1,-0.0589943,-10.1047)">
            <path d="M128.396,253.485C129.813,253.485 130.994,254.548 130.994,255.965C130.994,257.501 129.813,258.564 128.396,258.564C126.979,258.564 125.797,257.501 125.797,255.965C125.797,254.548 126.979,253.485 128.396,253.485Z" style="fill:white;"/>
        </g>
        <g transform="matrix(1,0,0,1,-0.0589943,-10.1047)">
            <path d="M431.845,260.218C433.381,260.218 434.444,261.28 434.444,262.698C434.444,264.233 433.381,265.296 431.845,265.296C430.428,265.296 429.365,264.233 429.365,262.698C429.365,261.28 430.428,260.218 431.845,260.218Z" style="fill:white;"/>
        </g>
        <g transform="matrix(1,0,0,1,-0.0589943,-10.1047)">
            <path d="M420.151,251.949C420.86,251.949 421.451,252.54 421.451,253.248C421.451,253.957 420.86,254.548 420.151,254.548C419.442,254.548 418.852,253.957 418.852,253.248C418.852,252.54 419.442,251.949 420.151,251.949Z" style="fill:white;"/>
        </g>
        <g transform="matrix(1,0,0,1,-0.0589943,-10.1047)">
            <path d="M418.852,280.416C419.561,280.416 420.151,281.006 420.151,281.715C420.151,282.424 419.561,283.014 418.852,283.014C418.143,283.014 417.553,282.424 417.553,281.715C417.553,281.006 418.143,280.416 418.852,280.416Z" style="fill:white;"/>
        </g>
        <g transform="matrix(1,0,0,1,-0.0589943,-10.1047)">
            <path d="M444.248,279.943C444.956,279.943 445.547,280.534 445.547,281.243C445.547,281.951 444.956,282.542 444.248,282.542C443.539,282.542 442.948,281.951 442.948,281.243C442.948,280.534 443.539,279.943 444.248,279.943Z" style="fill:white;"/>
        </g>
        <g transform="matrix(1,0,0,1,-0.0589943,-10.1047)">
            <path d="M346.917,226.79C347.626,226.79 348.216,227.38 348.216,228.089C348.216,228.798 347.626,229.388 346.917,229.388C346.208,229.388 345.618,228.798 345.618,228.089C345.618,227.38 346.208,226.79 346.917,226.79Z" style="fill:white;"/>
        </g>
        <g transform="matrix(1,0,0,1,-0.0589943,-10.1047)">
            <path d="M345.618,200.921C346.326,200.921 346.917,201.512 346.917,202.221C346.917,202.929 346.326,203.52 345.618,203.52C344.909,203.52 344.318,202.929 344.318,202.221C344.318,201.512 344.909,200.921 345.618,200.921Z" style="fill:white;"/>
        </g>
        <g transform="matrix(1,0,0,1,-0.0589943,-10.1047)">
            <path d="M283.959,164.186C284.668,164.186 285.259,164.659 285.259,165.485C285.259,166.194 284.668,166.785 283.959,166.785C283.251,166.785 282.66,166.194 282.66,165.485C282.66,164.659 283.251,164.186 283.959,164.186Z" style="fill:white;"/>
        </g>
        <g transform="matrix(1,0,0,1,-0.0589943,-10.1047)">
            <path d="M180.841,208.717C181.55,208.717 182.14,209.308 182.14,210.017C182.14,210.725 181.55,211.316 180.841,211.316C180.132,211.316 179.542,210.725 179.542,210.017C179.542,209.308 180.132,208.717 180.841,208.717Z" style="fill:white;"/>
        </g>
        <g transform="matrix(1,0,0,1,-0.0589943,-10.1047)">
            <path d="M164.777,183.322C165.485,183.322 166.076,183.912 166.076,184.621C166.076,185.33 165.485,185.92 164.777,185.92C164.068,185.92 163.477,185.33 163.477,184.621C163.477,183.912 164.068,183.322 164.777,183.322Z" style="fill:white;"/>
        </g>
        <g transform="matrix(1,0,0,1,-0.0589943,-10.1047)">
            <path d="M81.975,253.248C82.683,253.248 83.274,253.839 83.274,254.548C83.274,255.256 82.683,255.847 81.975,255.847C81.266,255.847 80.675,255.256 80.675,254.548C80.675,253.839 81.266,253.248 81.975,253.248Z" style="fill:white;"/>
        </g>
        <g transform="matrix(1,0,0,1,-0.0589943,-10.1047)">
            <path d="M135.837,280.18C136.546,280.18 137.137,280.77 137.137,281.479C137.137,282.188 136.546,282.778 135.837,282.778C135.129,282.778 134.538,282.188 134.538,281.479C134.538,280.77 135.129,280.18 135.837,280.18Z" style="fill:white;"/>
        </g>
        <g transform="matrix(1,0,0,1,-0.0589943,-10.1047)">
            <path d="M150.248,263.643C151.075,263.643 151.547,264.115 151.547,264.942C151.547,265.651 151.075,266.241 150.248,266.241C149.539,266.241 149.067,265.651 149.067,264.942C149.067,264.115 149.539,263.643 150.248,263.643Z" style="fill:white;"/>
        </g>
        <g transform="matrix(1,0,0,1,-0.0589943,-10.1047)">
            <path d="M248.642,240.137L266.241,254.784L283.959,269.549C291.283,275.573 292.346,286.44 286.204,293.763C282.778,297.897 277.935,300.024 272.974,300.024L201.984,300.024C192.417,300.024 184.621,292.346 184.621,282.778C184.621,276.872 187.574,271.675 192.18,268.486L208.717,254.784L226.435,240.019C233.05,234.585 242.381,234.822 248.642,240.137Z" style="fill:rgb(102,102,102);fill-rule:nonzero;"/>
        </g>
        <g transform="matrix(1,0,0,1,-0.0589943,-10.1047)">
            <path d="M271.557,259.154L283.959,269.549L190.763,269.549C191.236,269.194 191.708,268.84 192.18,268.486L203.402,259.154L271.557,259.154Z" style="fill:rgb(51,51,51);"/>
        </g>
        <g transform="matrix(1,0,0,1,-0.0589943,-10.1047)">
            <path d="M265.887,251.713L263.288,254.902L256.91,249.705L259.509,246.515L265.887,251.713ZM275.455,259.745L272.856,262.934L266.478,257.619L269.076,254.429L275.455,259.745ZM285.022,267.659L282.424,270.848L276.045,265.533L278.644,262.343L285.022,267.659ZM291.991,279.353L287.857,280.061L287.857,279.589L287.739,279.471L287.739,278.998L287.621,278.998L287.621,278.644L287.503,278.526L287.503,278.29L287.385,278.172L287.385,277.817L287.267,277.699L287.267,277.581L287.149,277.463L287.149,277.227L287.03,277.108L287.03,276.99L286.912,276.872L286.912,276.636L286.794,276.518L286.794,276.4L286.676,276.282L286.676,276.163L286.558,276.045L286.558,275.927L286.44,275.809L286.44,275.691L286.322,275.573L286.322,275.455L286.204,275.337L286.204,275.219L286.085,275.1L285.967,274.982L285.967,274.864L285.849,274.746L285.849,274.628L285.731,274.628L285.731,274.51L285.613,274.392L285.613,274.274L285.495,274.155L285.377,274.037L285.377,273.919L285.259,273.919L285.259,273.801L285.141,273.683L285.022,273.565L285.022,273.447L288.212,270.966L288.33,270.966L288.33,271.084L288.448,271.202L288.566,271.321L288.684,271.439L288.684,271.557L288.92,271.793L288.92,271.911L289.038,271.911L289.038,272.029L289.157,272.147L289.157,272.266L289.275,272.384L289.275,272.502L289.393,272.502L289.393,272.62L289.511,272.738L289.629,272.856L289.629,272.974L289.747,273.092L289.747,273.21L289.865,273.21L289.865,273.447L289.983,273.565L289.983,273.683L290.102,273.801L290.102,273.919L290.338,274.155L290.338,274.274L290.456,274.392L290.456,274.628L290.574,274.746L290.574,274.864L290.692,274.982L290.692,275.1L290.81,275.219L290.81,275.337L290.928,275.455L290.928,275.691L291.047,275.809L291.047,276.045L291.165,276.163L291.165,276.4L291.283,276.4L291.283,276.636L291.401,276.754L291.401,277.108L291.519,277.227L291.519,277.463L291.637,277.581L291.637,277.935L291.755,278.053L291.755,278.408L291.873,278.526L291.873,278.88L291.991,278.998L291.991,279.353ZM289.511,292.7L285.967,290.574L286.085,290.456L286.085,290.338L286.204,290.22L286.204,290.102L286.322,289.983L286.322,289.865L286.44,289.747L286.44,289.629L286.558,289.511L286.676,289.393L286.676,289.157L286.794,289.157L286.794,288.92L286.912,288.92L286.912,288.684L287.03,288.566L287.03,288.33L287.149,288.212L287.149,288.094L287.267,287.975L287.267,287.739L287.385,287.621L287.385,287.385L287.503,287.267L287.503,286.912L287.621,286.912L287.621,286.558L287.739,286.44L287.739,286.085L287.857,285.967L287.857,285.495L287.975,285.377L287.975,284.668L288.094,284.668L288.094,283.723L292.228,283.959L292.228,284.904L292.11,285.022L292.11,285.731L291.991,285.849L291.991,286.44L291.873,286.558L291.873,286.912L291.755,287.03L291.755,287.385L291.637,287.503L291.637,287.857L291.519,287.975L291.519,288.33L291.401,288.448L291.401,288.684L291.283,288.802L291.283,289.038L291.165,289.157L291.165,289.275L291.047,289.393L291.047,289.629L290.928,289.747L290.928,289.983L290.81,290.102L290.81,290.22L290.692,290.338L290.692,290.574L290.574,290.692L290.574,290.81L290.456,290.81L290.456,291.047L290.338,291.165L290.338,291.283L290.22,291.401L290.22,291.519L290.102,291.637L290.102,291.755L289.983,291.873L289.983,291.991L289.865,291.991L289.865,292.11L289.747,292.228L289.747,292.346L289.629,292.464L289.629,292.582L289.511,292.7ZM278.762,301.087L277.581,297.189L277.699,297.189L277.699,297.071L278.053,297.071L278.053,296.953L278.408,296.953L278.408,296.834L278.644,296.834L278.644,296.716L278.88,296.716L278.998,296.598L279.235,296.598L279.235,296.48L279.471,296.48L279.589,296.362L279.707,296.362L279.707,296.244L279.943,296.244L279.943,296.126L280.18,296.126L280.18,296.008L280.416,296.008L280.416,295.889L280.534,295.889L280.652,295.771L280.77,295.771L280.888,295.653L281.006,295.653L281.006,295.535L281.243,295.535L281.243,295.417L281.361,295.417L281.361,295.299L281.597,295.299L281.597,295.181L281.715,295.181L281.715,295.063L281.833,295.063L281.951,294.944L282.069,294.944L282.069,294.826L282.188,294.826L282.188,294.708L282.306,294.708L282.424,294.59L282.542,294.472L282.66,294.472L282.66,294.354L282.778,294.354L282.778,294.236L282.896,294.236L283.014,294.118L283.133,294L283.251,293.881L283.369,293.881L283.369,293.763L283.487,293.763L283.487,293.645L283.605,293.645L283.605,293.527L283.723,293.527L283.723,293.409L286.676,296.362L286.558,296.48L286.44,296.48L286.44,296.598L286.322,296.716L286.204,296.716L286.204,296.834L286.085,296.834L286.085,296.953L285.967,296.953L285.967,297.071L285.849,297.071L285.849,297.189L285.731,297.189L285.731,297.307L285.613,297.307L285.495,297.425L285.377,297.543L285.259,297.661L285.141,297.661L285.141,297.779L285.022,297.779L284.904,297.897L284.904,298.016L284.786,298.016L284.668,298.134L284.55,298.134L284.55,298.252L284.432,298.252L284.314,298.37L284.196,298.488L284.077,298.488L284.077,298.606L283.959,298.606L283.841,298.724L283.723,298.724L283.605,298.842L283.487,298.961L283.369,298.961L283.369,299.079L283.133,299.079L283.133,299.197L283.014,299.197L282.896,299.315L282.778,299.315L282.778,299.433L282.542,299.433L282.542,299.551L282.306,299.551L282.306,299.669L282.188,299.669L282.188,299.787L281.951,299.787L281.951,299.905L281.715,299.905L281.715,300.024L281.479,300.024L281.479,300.142L281.243,300.142L281.243,300.26L281.006,300.26L280.888,300.378L280.77,300.378L280.652,300.496L280.416,300.496L280.298,300.614L280.061,300.614L280.061,300.732L279.825,300.732L279.707,300.85L279.471,300.85L279.471,300.969L279.116,300.969L279.116,301.087L278.762,301.087ZM275.1,299.905L272.974,299.905M275.1,299.905L275.1,300.024M270.966,297.897L273.919,297.897L274.155,299.905M265.887,302.032L265.887,297.897L272.974,297.897L272.974,302.032L273.092,302.032L274.155,300.969L275.1,300.024L275.1,302.032L265.887,302.032ZM253.485,302.032L253.485,297.897L261.752,297.897L261.752,302.032L253.485,302.032ZM240.964,302.032L240.964,297.897L249.35,297.897L249.35,302.032L240.964,302.032ZM228.561,302.032L228.561,297.897L236.83,297.897L236.83,302.032L228.561,302.032ZM216.159,302.032L216.159,297.897L224.427,297.897L224.427,302.032L216.159,302.032ZM203.756,302.032L203.756,297.897L212.025,297.897L212.025,302.032L203.756,302.032ZM190.763,298.488L193.125,295.181L193.244,295.181L193.244,295.299L193.48,295.299L193.48,295.417L193.598,295.417L193.834,295.653L193.952,295.653L194.07,295.771L194.189,295.771L194.189,295.889L194.425,295.889L194.425,296.008L194.661,296.008L194.661,296.126L194.779,296.126L194.897,296.244L195.015,296.244L195.133,296.362L195.252,296.362L195.37,296.48L195.488,296.48L195.606,296.598L195.724,296.598L195.842,296.716L196.078,296.716L196.078,296.834L196.315,296.834L196.433,296.953L196.669,296.953L196.669,297.071L197.023,297.071L197.023,297.189L197.378,297.189L197.378,297.307L197.732,297.307L197.732,297.425L198.205,297.425L198.205,297.543L198.677,297.543L198.795,297.661L199.268,297.661L199.386,297.779L199.858,297.779L199.268,301.914L199.031,301.914L198.913,301.795L198.323,301.795L198.205,301.677L197.732,301.677L197.614,301.559L197.26,301.559L197.141,301.441L196.787,301.441L196.669,301.323L196.433,301.323L196.315,301.205L196.078,301.205L195.96,301.087L195.606,301.087L195.488,300.969L195.252,300.969L195.133,300.85L195.015,300.85L195.015,300.732L194.779,300.732L194.661,300.614L194.425,300.614L194.307,300.496L194.189,300.496L194.07,300.378L193.834,300.378L193.598,300.142L193.48,300.142L193.362,300.024L193.125,300.024L193.007,299.905L192.889,299.905L192.653,299.669L192.535,299.669L192.417,299.551L192.299,299.551L192.18,299.433L192.062,299.433L192.062,299.315L191.944,299.315L191.826,299.197L191.708,299.197L191.59,299.079L191.472,299.079L191.472,298.961L191.354,298.961L191.236,298.842L191.117,298.842L190.763,298.488ZM183.085,287.267L187.101,286.322L187.219,286.322L187.219,286.676L187.338,286.794L187.338,287.03L187.456,287.149L187.456,287.503L187.574,287.621L187.574,287.857L187.692,287.975L187.692,288.094L187.81,288.212L187.81,288.448L187.928,288.566L187.928,288.684L188.046,288.802L188.046,289.038L188.164,289.038L188.164,289.275L188.283,289.275L188.283,289.511L188.401,289.629L188.401,289.747L188.519,289.865L188.519,289.983L188.637,290.102L188.755,290.22L188.755,290.338L188.873,290.456L188.873,290.574L188.991,290.574L188.991,290.81L189.109,290.81L189.109,290.928L189.227,291.047L189.346,291.165L189.346,291.283L189.464,291.401L189.464,291.519L189.582,291.519L189.582,291.637L189.7,291.637L189.7,291.755L189.818,291.873L189.818,291.991L189.936,292.11L190.172,292.346L190.172,292.464L190.291,292.464L190.291,292.582L190.409,292.582L190.409,292.7L187.338,295.417L187.219,295.299L187.219,295.181L187.101,295.181L186.983,295.063L186.983,294.944L186.865,294.826L186.747,294.826L186.747,294.708L186.629,294.59L186.629,294.472L186.511,294.354L186.393,294.354L186.393,294.236L186.274,294.118L186.274,294L186.156,294L186.156,293.881L185.92,293.645L185.92,293.527L185.684,293.291L185.684,293.173L185.566,293.055L185.566,292.936L185.33,292.7L185.33,292.582L185.211,292.464L185.211,292.346L184.975,292.11L184.975,291.991L184.857,291.873L184.857,291.755L184.739,291.637L184.739,291.519L184.503,291.283L184.503,291.047L184.385,290.928L184.385,290.81L184.266,290.692L184.266,290.456L184.148,290.338L184.148,290.22L184.03,290.22L184.03,289.983L183.912,289.865L183.912,289.629L183.794,289.511L183.794,289.393L183.676,289.275L183.676,289.038L183.558,288.92L183.558,288.566L183.44,288.448L183.44,288.212L183.322,288.094L183.322,287.857L183.203,287.739L183.203,287.385L183.085,287.267ZM184.857,273.683L188.519,275.691L188.401,275.809L188.401,275.927L188.283,275.927L188.283,276.163L188.164,276.163L188.164,276.4L188.046,276.518L188.046,276.636L187.928,276.754L187.928,276.99L187.81,276.99L187.81,277.227L187.692,277.345L187.692,277.581L187.574,277.699L187.574,277.935L187.456,277.935L187.456,278.29L187.338,278.408L187.338,278.644L187.219,278.762L187.219,279.116L187.101,279.235L187.101,279.707L186.983,279.825L186.983,280.298L186.865,280.416L186.865,281.243L186.747,281.361L186.747,282.66L182.613,282.66L182.613,281.006L182.731,281.006L182.731,280.061L182.849,279.943L182.849,279.353L182.967,279.235L182.967,278.762L183.085,278.644L183.085,278.172L183.203,278.053L183.203,277.699L183.322,277.699L183.322,277.345L183.44,277.227L183.44,276.99L183.558,276.872L183.558,276.518L183.676,276.518L183.676,276.282L183.794,276.163L183.794,275.927L183.912,275.809L183.912,275.691L184.03,275.573L184.03,275.337L184.148,275.219L184.148,274.982L184.266,274.982L184.266,274.746L184.385,274.746L184.385,274.51L184.503,274.392L184.503,274.274L184.621,274.274L184.621,274.037L184.739,273.919L184.739,273.801L184.857,273.683ZM193.952,264.352L196.669,267.541L193.48,270.139L193.362,270.139L193.362,270.257L193.244,270.257L193.125,270.376L193.007,270.376L193.007,270.494L192.889,270.494L192.889,270.612L192.771,270.612L192.653,270.73L192.535,270.73L192.535,270.848L192.417,270.848L192.417,270.966L192.299,270.966L192.299,271.084L192.18,271.084L192.062,271.202L191.944,271.202L191.944,271.321L191.826,271.321L191.826,271.439L191.708,271.439L191.708,271.557L191.59,271.557L191.59,271.675L191.472,271.675L191.472,271.793L191.354,271.793L191.354,271.911L191.236,271.911L191.236,272.029L191.117,272.029L191.117,272.147L190.999,272.147L190.999,272.266L190.881,272.266L190.881,272.384L190.763,272.384L190.763,272.502L190.645,272.502L190.645,272.62L190.527,272.62L187.456,269.903L187.692,269.667L187.928,269.431L187.928,269.313L188.046,269.313L188.046,269.194L188.164,269.194L188.283,269.076L188.283,268.958L188.401,268.958L188.401,268.84L188.519,268.84L188.637,268.722L188.637,268.604L188.755,268.604L188.991,268.368L189.109,268.249L189.227,268.249L189.227,268.131L189.346,268.013L189.464,268.013L189.464,267.895L189.582,267.895L189.818,267.659L189.936,267.659L189.936,267.541L190.054,267.541L190.054,267.423L190.172,267.423L190.172,267.305L190.291,267.305L190.409,267.186L190.527,267.186L190.527,267.068L190.645,267.068L190.645,266.95L190.763,266.95L190.881,266.832L193.952,264.352ZM203.52,256.319L206.119,259.509L199.858,264.824L197.141,261.636L203.52,256.319ZM213.088,248.405L215.686,251.595L210.017,256.319L209.308,256.91L206.709,253.721L207.418,253.13L213.088,248.405ZM222.655,240.491L225.254,243.681L218.875,248.996L216.277,245.807L222.655,240.491ZM234.349,234.113L235.058,238.247L234.704,238.247L234.704,238.365L234.231,238.365L234.113,238.483L233.64,238.483L233.64,238.601L233.168,238.601L233.168,238.72L232.814,238.72L232.695,238.838L232.459,238.838L232.459,238.956L232.223,238.956L232.105,239.074L231.869,239.074L231.869,239.192L231.632,239.192L231.514,239.31L231.396,239.31L231.278,239.428L231.042,239.428L230.924,239.546L230.806,239.546L230.687,239.665L230.569,239.665L230.569,239.783L230.333,239.783L230.333,239.901L230.097,239.901L230.097,240.019L229.979,240.019L229.861,240.137L229.742,240.137L229.624,240.255L229.506,240.255L229.506,240.373L229.388,240.373L229.27,240.491L229.152,240.491L229.152,240.609L229.034,240.609L228.916,240.728L228.798,240.728L228.798,240.846L228.679,240.846L228.561,240.964L228.443,240.964L228.443,241.082L225.963,237.775L226.081,237.657L226.199,237.538L226.317,237.42L226.435,237.42L226.435,237.302L226.553,237.302L226.671,237.184L226.789,237.184L226.789,237.066L226.908,237.066L227.026,236.948L227.144,236.948L227.262,236.83L227.38,236.712L227.498,236.712L227.616,236.593L227.734,236.475L227.971,236.475L228.207,236.239L228.325,236.239L228.443,236.121L228.561,236.121L228.679,236.003L228.798,236.003L228.916,235.885L229.034,235.885L229.034,235.767L229.27,235.767L229.388,235.648L229.624,235.648L229.624,235.53L229.742,235.53L229.861,235.412L230.097,235.412L230.215,235.294L230.333,235.294L230.451,235.176L230.687,235.176L230.806,235.058L231.042,235.058L231.16,234.94L231.396,234.94L231.396,234.822L231.751,234.822L231.869,234.704L232.105,234.704L232.223,234.585L232.577,234.585L232.695,234.467L233.05,234.467L233.168,234.349L233.522,234.349L233.64,234.231L234.231,234.231L234.349,234.113ZM247.697,236.83L245.571,240.373L245.452,240.373L245.452,240.255L245.334,240.255L245.216,240.137L245.098,240.137L244.98,240.019L244.862,239.901L244.744,239.901L244.626,239.783L244.507,239.783L244.389,239.665L244.153,239.665L244.153,239.546L243.917,239.546L243.917,239.428L243.799,239.428L243.681,239.31L243.444,239.31L243.326,239.192L243.09,239.192L243.09,239.074L242.854,239.074L242.736,238.956L242.499,238.956L242.499,238.838L242.145,238.838L242.027,238.72L241.791,238.72L241.673,238.601L241.318,238.601L241.318,238.483L240.846,238.483L240.846,238.365L240.373,238.365L240.255,238.247L239.546,238.247L239.546,238.129L238.72,238.129L238.956,233.995L239.901,233.995L240.019,234.113L240.609,234.113L240.728,234.231L241.318,234.231L241.436,234.349L241.791,234.349L241.909,234.467L242.263,234.467L242.381,234.585L242.736,234.585L242.854,234.704L243.09,234.704L243.208,234.822L243.562,234.822L243.562,234.94L243.799,234.94L243.917,235.058L244.153,235.058L244.271,235.176L244.507,235.176L244.626,235.294L244.744,235.294L244.862,235.412L245.098,235.412L245.216,235.53L245.334,235.53L245.452,235.648L245.571,235.648L245.689,235.767L245.807,235.767L245.925,235.885L246.161,235.885L246.161,236.003L246.279,236.003L246.397,236.121L246.515,236.121L246.634,236.239L246.752,236.239L246.87,236.357L246.988,236.357L247.106,236.475L247.224,236.593L247.342,236.593L247.46,236.712L247.579,236.712L247.697,236.83ZM256.319,243.799L253.721,246.988L247.342,241.673L249.941,238.483L256.319,243.799Z" style="fill:rgb(204,204,204);"/>
        </g>
        <g transform="matrix(1,0,0,1,-0.0589943,-10.1047)">
            <path d="M194.189,269.549L187.81,269.549L187.928,269.431L187.928,269.313L188.046,269.313L188.046,269.194L188.164,269.194L188.283,269.076L188.283,268.958L188.401,268.958L188.401,268.84L188.519,268.84L188.637,268.722L188.637,268.604L188.755,268.604L188.991,268.368L189.109,268.249L189.227,268.249L189.227,268.131L189.346,268.013L189.464,268.013L189.464,267.895L189.582,267.895L189.818,267.659L189.936,267.659L189.936,267.541L190.054,267.541L190.054,267.423L190.172,267.423L190.172,267.305L190.291,267.305L190.409,267.186L190.527,267.186L190.527,267.068L190.645,267.068L190.645,266.95L190.763,266.95L190.881,266.832L193.952,264.352L196.669,267.541L194.189,269.549ZM283.487,269.549L280.77,269.549L276.045,265.533L278.644,262.343L285.022,267.659L283.487,269.549ZM268.368,259.154L274.864,259.154L275.455,259.745L272.856,262.934L268.368,259.154ZM200.094,259.154L205.882,259.154L206.119,259.509L199.858,264.824L197.141,261.636L200.094,259.154Z" style="fill:rgb(102,102,102);fill-rule:nonzero;"/>
        </g>
        <g transform="matrix(1,0,0,1,-0.0589943,-10.1047)">
            <path d="M201.984,294.118L272.974,294.118C276.4,294.118 279.471,292.582 281.715,289.983C285.613,285.259 285.022,278.053 280.18,274.037L244.862,244.626C240.609,241.082 234.467,240.964 230.215,244.507L195.724,273.21L195.488,273.447C192.417,275.573 190.527,278.998 190.527,282.778C190.527,289.038 195.606,294.118 201.984,294.118Z" style="fill:rgb(51,51,51);"/>
        </g>
        <g transform="matrix(1,0,0,1,-0.0589943,-10.1047)">
            <path d="M274.746,269.549L262.343,259.154L212.615,259.154L200.094,269.549L274.746,269.549Z"/>
        </g>
        <g transform="matrix(1,0,0,1,-0.0589943,-10.1047)">
            <path d="M237.42,241.909C234.822,241.909 232.341,242.736 230.215,244.507L195.724,273.21L195.488,273.447C192.417,275.573 190.527,278.998 190.527,282.778C190.527,289.038 195.606,294.118 201.984,294.118L237.42,294.118L237.42,241.909Z" style="fill:rgb(26,26,26);"/>
        </g>
        <g transform="matrix(1,0,0,1,-0.0589943,-10.1047)">
            <path d="M212.615,259.154L200.094,269.549L237.42,269.549L237.42,259.154L212.615,259.154Z"/>
        </g>
        <g transform="matrix(1,0,0,1,-0.0589943,-10.1047)">
            <path d="M271.202,271.675C276.99,271.675 281.597,276.4 281.597,282.069C281.597,287.857 276.99,292.464 271.202,292.464C265.533,292.464 260.926,287.857 260.926,282.069C260.926,276.4 265.533,271.675 271.202,271.675Z" style="fill:rgb(153,153,153);"/>
        </g>
        <g transform="matrix(1,0,0,1,-0.0589943,-10.1047)">
            <path d="M203.638,271.675C209.308,271.675 213.914,276.4 213.914,282.069C213.914,287.857 209.308,292.464 203.638,292.464C197.85,292.464 193.244,287.857 193.244,282.069C193.244,276.4 197.85,271.675 203.638,271.675Z" style="fill:rgb(153,153,153);"/>
        </g>
        <g transform="matrix(1,0,0,1,-0.0589943,-10.1047)">
            <path d="M271.202,271.675C276.99,271.675 281.597,276.4 281.597,282.069L281.597,282.188L260.926,282.188L260.926,282.069C260.926,276.4 265.533,271.675 271.202,271.675Z" style="fill:rgb(204,204,204);"/>
        </g>
        <g transform="matrix(1,0,0,1,-0.0589943,-10.1047)">
            <path d="M203.638,271.675C209.308,271.675 213.914,276.4 213.914,282.069L213.914,282.188L193.244,282.188L193.244,282.069C193.244,276.4 197.85,271.675 203.638,271.675Z" style="fill:rgb(204,204,204);"/>
        </g>
        <g transform="matrix(1,0,0,1,-0.0589943,-10.1047)">
            <path d="M237.42,244.153C243.09,244.153 247.815,248.76 247.815,254.429C247.815,260.218 243.09,264.824 237.42,264.824C231.751,264.824 227.026,260.218 227.026,254.429C227.026,248.76 231.751,244.153 237.42,244.153Z" style="fill:rgb(204,204,204);"/>
        </g>
        <g transform="matrix(1,0,0,1,-0.0589943,-10.1047)">
            <path d="M237.42,155.563C259.153,155.563 276.99,173.281 276.99,195.133L276.99,252.894L197.85,252.894L197.85,195.133C197.85,173.281 215.686,155.563 237.42,155.563Z" style="fill:rgb(221,255,99);"/>
        </g>
        <g transform="matrix(1,0,0,1,-0.0589943,-10.1047)">
            <path d="M271.557,252.894L197.85,252.894L197.85,195.133C197.85,174.935 213.206,158.044 232.814,155.8C254.193,156.272 271.557,173.872 271.557,195.37L271.557,252.894Z" style="fill:rgb(213,255,63);"/>
        </g>
        <g transform="matrix(1,0,0,1,-0.0589943,-10.1047)">
            <path d="M212.379,223.6C221.947,204.229 253.13,204.229 262.698,223.6L212.379,223.6Z" style="fill:rgb(46,189,51);"/>
        </g>
        <g transform="matrix(1,0,0,1,-0.0589943,-10.1047)">
            <path d="M195.133,227.144L279.707,227.144C284.668,227.144 288.802,231.16 288.802,236.121L288.802,256.319C288.802,261.28 284.668,265.415 279.707,265.415L195.133,265.415C190.172,265.415 186.038,261.28 186.038,256.319L186.038,236.121C186.038,231.16 190.172,227.144 195.133,227.144Z" style="fill:rgb(179,179,179);"/>
        </g>
        <g transform="matrix(1,0,0,1,-0.0589943,-10.1047)">
            <path d="M195.133,227.144L279.707,227.144C284.668,227.144 288.802,231.16 288.802,236.121L288.802,247.46C286.676,249.823 283.487,251.24 279.825,251.24L195.015,251.24C191.354,251.24 188.164,249.823 186.038,247.46L186.038,236.121C186.038,231.16 190.172,227.144 195.133,227.144Z" style="fill:rgb(204,204,204);"/>
        </g>
        <g transform="matrix(1,0,0,1,-0.0589943,-10.1047)">
            <path d="M184.857,235.53L190.881,235.53C192.417,235.53 193.598,236.83 193.598,238.247L193.598,254.193C193.598,255.729 192.417,256.91 190.881,256.91L184.857,256.91C183.44,256.91 182.258,255.729 182.258,254.193L182.258,238.247C182.258,236.83 183.44,235.53 184.857,235.53Z" style="fill:rgb(102,102,102);fill-rule:nonzero;"/>
        </g>
        <g transform="matrix(1,0,0,1,-0.0589943,-10.1047)">
            <path d="M183.558,235.53L186.511,235.53C187.338,235.53 187.928,236.239 187.928,236.948L187.928,255.493C187.928,256.319 187.338,256.91 186.511,256.91L183.558,256.91C182.849,256.91 182.258,256.319 182.258,255.493L182.258,236.948C182.258,236.239 182.849,235.53 183.558,235.53Z" style="fill:rgb(51,51,51);"/>
        </g>
        <g transform="matrix(1,0,0,1,-0.0589943,-10.1047)">
            <path d="M182.14,248.996L184.148,248.996C184.621,248.996 185.093,249.468 185.093,249.941L185.093,253.839C185.093,254.311 184.621,254.666 184.148,254.666L182.14,254.666C181.55,254.666 181.195,254.311 181.195,253.839L181.195,249.941C181.195,249.468 181.55,248.996 182.14,248.996Z" style="fill:rgb(102,102,102);fill-rule:nonzero;"/>
        </g>
        <g transform="matrix(1,0,0,1,-0.0589943,-10.1047)">
            <path d="M182.14,237.775L184.148,237.775C184.621,237.775 185.093,238.129 185.093,238.601L185.093,242.499C185.093,243.09 184.621,243.444 184.148,243.444L182.14,243.444C181.55,243.444 181.195,243.09 181.195,242.499L181.195,238.601C181.195,238.129 181.55,237.775 182.14,237.775Z" style="fill:rgb(102,102,102);fill-rule:nonzero;"/>
        </g>
        <g transform="matrix(1,0,0,1,-0.0589943,-10.1047)">
            <path d="M197.141,223.6L277.699,223.6C278.172,223.6 278.526,224.073 278.526,224.427L278.526,226.317C278.526,226.79 278.172,227.144 277.699,227.144L197.141,227.144C196.669,227.144 196.315,226.79 196.315,226.317L196.315,224.427C196.315,224.073 196.669,223.6 197.141,223.6Z" style="fill:rgb(179,179,179);"/>
        </g>
        <g transform="matrix(1,0,0,1,-0.0589943,-10.1047)">
            <path d="M210.961,182.849C209.426,191.236 209.426,205.528 212.261,208.953C221.71,220.765 253.248,220.765 262.816,208.953C265.533,205.528 265.533,191.236 263.997,182.849C261.989,172.455 212.97,172.455 210.961,182.849Z" style="fill:rgb(51,204,51);"/>
        </g>
        <g transform="matrix(1,0,0,1,-0.0589943,-10.1047)">
            <path d="M210.961,182.849C209.426,191.236 209.426,205.528 212.261,208.953C216.986,214.859 227.262,217.812 237.538,217.812L237.538,175.053C224.781,175.053 212.025,177.652 210.961,182.849Z" style="fill:rgb(95,222,53);"/>
        </g>
        <g transform="matrix(1,0,0,1,-0.0589943,-10.1047)">
            <path d="M228.916,193.362C230.215,193.362 231.16,194.425 231.16,195.724C231.16,197.023 230.215,198.086 228.916,198.086C227.616,198.086 226.553,197.023 226.553,195.724C226.553,194.425 227.616,193.362 228.916,193.362Z"/>
        </g>
        <g transform="matrix(1,0,0,1,-0.0589943,-10.1047)">
            <path d="M246.161,193.362C247.46,193.362 248.405,194.425 248.405,195.724C248.405,197.023 247.46,198.086 246.161,198.086C244.862,198.086 243.799,197.023 243.799,195.724C243.799,194.425 244.862,193.362 246.161,193.362Z"/>
        </g>
        <g transform="matrix(1,0,0,1,-0.0589943,-10.1047)">
            <path d="M216.749,201.276C219.702,201.276 222.065,203.638 222.065,206.591C222.065,209.544 219.702,211.906 216.749,211.906C213.796,211.906 211.316,209.544 211.316,206.591C211.316,203.638 213.796,201.276 216.749,201.276Z" style="fill:rgb(255,139,149);"/>
        </g>
        <g transform="matrix(1,0,0,1,-0.0589943,-10.1047)">
            <path d="M258.327,201.276C261.28,201.276 263.643,203.638 263.643,206.591C263.643,209.544 261.28,211.906 258.327,211.906C255.374,211.906 252.894,209.544 252.894,206.591C252.894,203.638 255.374,201.276 258.327,201.276Z" style="fill:rgb(255,139,149);"/>
        </g>
        <g transform="matrix(1,0,0,1,-0.0589943,-10.1047)">
            <path d="M240.019,204.111C243.09,204.111 245.571,206.591 245.571,209.662L234.585,209.662C234.585,206.591 237.066,204.111 240.019,204.111Z"/>
        </g>
        <g transform="matrix(1,0,0,1,-0.0589943,-10.1047)">
            <path d="M226.199,165.722C227.616,165.722 228.679,166.903 228.679,168.32C228.679,169.62 227.616,170.801 226.199,170.801C224.781,170.801 223.718,169.62 223.718,168.32C223.718,166.903 224.781,165.722 226.199,165.722Z" style="fill:rgb(95,222,53);"/>
        </g>
        <g transform="matrix(1,0,0,1,-0.0589943,-10.1047)">
            <path d="M225.608,168.911L226.789,168.911L227.262,180.369L225.136,180.369L225.608,168.911Z" style="fill:rgb(95,222,53);"/>
        </g>
        <g transform="matrix(1,0,0,1,-0.0589943,-10.1047)">
            <path d="M248.878,165.722C250.177,165.722 251.358,166.903 251.358,168.32C251.358,169.62 250.177,170.801 248.878,170.801C247.46,170.801 246.279,169.62 246.279,168.32C246.279,166.903 247.46,165.722 248.878,165.722Z" style="fill:rgb(51,204,51);"/>
        </g>
        <g transform="matrix(1,0,0,1,-0.0589943,-10.1047)">
            <path d="M248.287,168.911L249.35,168.911L249.941,180.369L247.697,180.369L248.287,168.911Z" style="fill:rgb(51,204,51);"/>
        </g>
        <g transform="matrix(1,0,0,1,-0.0589943,-10.1047)">
            <path d="M211.788,212.97C212.97,212.97 214.033,214.033 214.033,215.214L214.033,219.939C214.033,221.238 212.97,222.183 211.788,222.183C210.489,222.183 209.426,221.238 209.426,219.939L209.426,215.214C209.426,214.033 210.489,212.97 211.788,212.97Z" style="fill:rgb(164,55,55);"/>
        </g>
        <g transform="matrix(1,0,0,1,-0.0589943,-10.1047)">
            <path d="M262.934,212.97C264.115,212.97 265.178,214.033 265.178,215.214L265.178,219.939C265.178,221.238 264.115,222.183 262.934,222.183C261.635,222.183 260.571,221.238 260.571,219.939L260.571,215.214C260.571,214.033 261.635,212.97 262.934,212.97Z" style="fill:rgb(164,55,55);"/>
        </g>
        <g transform="matrix(1,0,0,1,-0.0589943,-10.1047)">
            <path d="M211.788,215.214C214.741,215.214 217.222,217.694 217.222,220.647C217.222,223.718 214.741,226.081 211.788,226.081C208.717,226.081 206.355,223.718 206.355,220.647C206.355,217.694 208.717,215.214 211.788,215.214Z" style="fill:rgb(95,222,53);"/>
        </g>
        <g transform="matrix(1,0,0,1,-0.0589943,-10.1047)">
            <path d="M262.934,215.214C265.887,215.214 268.368,217.694 268.368,220.647C268.368,223.718 265.887,226.081 262.934,226.081C259.863,226.081 257.501,223.718 257.501,220.647C257.501,217.694 259.863,215.214 262.934,215.214Z" style="fill:rgb(51,204,51);"/>
        </g>
        <g transform="matrix(1,0,0,1,-0.0589943,-10.1047)">
            <path d="M262.934,168.911C265.296,168.911 267.186,170.919 267.186,173.281C267.186,175.644 265.296,177.534 262.934,177.534C260.571,177.534 258.682,175.644 258.682,173.281C258.682,170.919 260.571,168.911 262.934,168.911Z" style="fill:white;"/>
        </g>
        <g transform="matrix(1,0,0,1,-0.0589943,-10.1047)">
            <rect x="202.103" y="276.4" width="3.071" height="11.694" style="fill:rgb(230,230,230);"/>
        </g>
        <g transform="matrix(1,0,0,1,-0.0589943,-10.1047)">
            <rect x="265.415" y="280.652" width="11.693" height="3.071" style="fill:rgb(230,230,230);"/>
        </g>
        <g transform="matrix(1,0,0,1,-0.0589943,-10.1047)">
            <path d="M279.825,231.278L281.361,231.278C282.896,231.278 284.196,232.577 284.196,234.113C284.196,235.648 282.896,236.948 281.361,236.948L279.825,236.948C278.29,236.948 276.99,235.648 276.99,234.113C276.99,232.577 278.29,231.278 279.825,231.278Z" style="fill:white;"/>
        </g>
        <g transform="matrix(1,0,0,1,-0.0589943,-10.1047)">
            <path d="M248.642,231.278L266.241,231.278C267.777,231.278 269.076,232.577 269.076,234.113C269.076,235.648 267.777,236.948 266.241,236.948L248.642,236.948C247.106,236.948 245.807,235.648 245.807,234.113C245.807,232.577 247.106,231.278 248.642,231.278Z" style="fill:white;"/>
        </g>
        <g transform="matrix(1,0,0,1,-0.0589943,-10.1047)">
            <rect x="270.021" y="297.897" width="5.079" height="4.135" style="fill:rgb(204,204,204);"/>
        </g>
        <g transform="matrix(1,0,0,1,-0.0589943,-10.1047)">
            <rect x="74.179" y="293.763" width="342.192" height="11.34" style="fill:rgb(42,115,7);"/>
        </g>
        <g transform="matrix(1,0,0,1,-0.0589943,-10.1047)">
            <rect x="74.179" y="293.763" width="342.192" height="5.434" style="fill:rgb(87,186,40);"/>
        </g>
        <g transform="matrix(1,0,0,1,-0.0589943,-10.1047)">
            <path d="M378.455,282.424C375.738,285.377 369.478,291.873 361.8,293.763C352.232,296.008 382.117,296.953 382.117,298.016C382.117,298.488 384.479,298.488 387.314,298.252C390.149,298.488 392.393,298.488 392.393,298.016C392.393,296.953 422.277,296.008 412.71,293.763C405.15,291.873 398.772,285.377 396.173,282.424L378.455,282.424Z" style="fill:rgb(87,186,40);"/>
        </g>
        <g transform="matrix(1,0,0,1,-0.0589943,-10.1047)">
            <path d="M346.681,287.385C345.736,289.393 343.255,293.881 340.302,295.181C336.641,296.716 348.216,297.425 348.216,298.134C348.216,298.488 349.043,298.488 350.106,298.252C351.287,298.488 352.114,298.488 352.114,298.134C352.114,297.425 363.69,296.716 360.028,295.181C357.075,293.881 354.595,289.393 353.65,287.385L346.681,287.385Z" style="fill:rgb(87,186,40);"/>
        </g>
        <g transform="matrix(1,0,0,1,-0.0589943,-10.1047)">
            <path d="M151.665,287.385C150.602,289.393 148.24,293.881 145.287,295.181C141.507,296.716 153.201,297.425 153.201,298.134C153.201,298.488 154.028,298.488 155.091,298.252C156.272,298.488 157.099,298.488 157.099,298.134C157.099,297.425 168.675,296.716 165.013,295.181C162.06,293.881 159.579,289.393 158.516,287.385L151.665,287.385Z" style="fill:rgb(87,186,40);"/>
        </g>
        <g transform="matrix(1,0,0,1,-0.0589943,-10.1047)">
            <path d="M103.709,281.833C102.173,284.904 98.511,291.637 94.023,293.527C88.471,295.889 105.953,296.834 105.953,298.016C105.953,298.488 107.253,298.488 108.906,298.252C110.56,298.488 111.859,298.488 111.859,298.016C111.859,296.834 129.223,295.889 123.671,293.527C119.301,291.637 115.639,284.904 114.103,281.833L103.709,281.833Z" style="fill:rgb(87,186,40);"/>
        </g>
        <g transform="matrix(1,0,0,1,-0.0589943,-10.1047)">
            <path d="M92.723,172.809C107.607,157.926 131.703,157.926 146.586,172.809C161.469,187.692 161.469,211.788 146.586,226.671C131.703,241.554 107.607,241.554 92.723,226.671C77.84,211.788 77.84,187.692 92.723,172.809Z" style="fill:rgb(24,95,100);"/>
        </g>
        <g transform="matrix(1,0,0,1,-0.0589943,-10.1047)">
            <path d="M92.723,172.809C107.607,157.926 131.703,157.926 146.586,172.809C161.469,187.692 161.469,211.788 146.586,226.671L92.723,172.809Z" style="fill:rgb(64,121,125);"/>
        </g>
        <g transform="matrix(1,0,0,1,-0.0589943,-10.1047)">
            <path d="M110.914,172.691C115.285,168.438 122.254,168.438 126.506,172.691C130.757,177.061 130.757,184.03 126.506,188.283C122.254,192.535 115.285,192.535 110.914,188.283C106.662,184.03 106.662,177.061 110.914,172.691Z" style="fill:rgb(100,146,150);"/>
        </g>
        <g transform="matrix(1,0,0,1,-0.0589943,-10.1047)">
            <path d="M103.118,224.427C104.772,222.773 107.371,222.773 109.024,224.427C110.678,226.081 110.678,228.679 109.024,230.333C107.371,231.987 104.772,231.987 103.118,230.333C101.465,228.679 101.465,226.081 103.118,224.427Z" style="fill:rgb(64,121,125);"/>
        </g>
        <g transform="matrix(1,0,0,1,-0.0589943,-10.1047)">
            <path d="M99.929,171.628C101.11,170.565 103,170.565 104.063,171.628C105.245,172.809 105.245,174.699 104.063,175.762C103,176.943 101.11,176.943 99.929,175.762C98.866,174.699 98.866,172.809 99.929,171.628Z" style="fill:rgb(100,146,150);"/>
        </g>
        <g transform="matrix(1,0,0,1,-0.0589943,-10.1047)">
            <path d="M139.617,184.621C141.98,182.14 145.996,182.14 148.476,184.621C150.839,187.101 150.839,190.999 148.476,193.48C145.996,195.96 141.98,195.96 139.617,193.48C137.137,190.999 137.137,187.101 139.617,184.621Z" style="fill:rgb(100,146,150);"/>
        </g>
        <g transform="matrix(1,0,0,1,-0.0589943,-10.1047)">
            <rect x="328.845" y="267.423" width="6.26" height="26.34" style="fill:rgb(63,63,37);"/>
        </g>
        <g transform="matrix(1,0,0,1,-0.0589943,-10.1047)">
            <rect x="381.408" y="267.423" width="6.26" height="26.34" style="fill:rgb(63,63,37);"/>
        </g>
        <g transform="matrix(1,0,0,1,-0.0589943,-10.1047)">
            <path d="M314.316,232.459L402.197,232.459C404.087,232.459 405.622,233.995 405.622,235.885L405.622,280.77C405.622,282.66 404.087,284.196 402.197,284.196L314.316,284.196C312.426,284.196 310.891,282.66 310.891,280.77L310.891,235.885C310.891,233.995 312.426,232.459 314.316,232.459Z" style="fill:rgb(242,27,27);"/>
        </g>
        <g transform="matrix(1,0,0,1,-0.0589943,-10.1047)">
            <path d="M318.686,234.585L397.827,234.585C400.898,234.585 403.496,237.184 403.496,240.255L403.496,276.4C403.496,279.471 400.898,282.069 397.827,282.069L318.686,282.069C315.497,282.069 312.899,279.471 312.899,276.4L312.899,240.255C312.899,237.184 315.497,234.585 318.686,234.585Z" style="fill:rgb(248,75,75);"/>
        </g>
        <g transform="matrix(1,0,0,1,-0.0589943,-10.1047)">
            <path d="M386.487,265.533C386.487,267.305 387.905,268.722 389.676,268.722C391.566,268.722 392.866,267.305 392.866,265.533C392.866,263.643 391.566,262.225 389.676,262.225C387.905,262.225 386.487,263.643 386.487,265.533ZM376.329,265.533C376.329,267.305 377.628,268.722 379.518,268.722C381.408,268.722 382.707,267.305 382.707,265.533C382.707,263.643 381.408,262.225 379.518,262.225C377.628,262.225 376.329,263.643 376.329,265.533ZM373.73,259.745L371.604,259.745L371.604,248.287L364.753,248.287L357.902,260.099L357.902,263.879L366.525,263.879L366.525,268.368L371.604,268.368L371.604,263.879L373.73,263.879L373.73,259.745ZM363.099,259.745L364.871,256.319C365.462,255.138 366.052,253.957 366.525,252.658L366.643,252.658C366.643,254.075 366.525,256.083 366.525,257.501L366.525,259.745L363.099,259.745ZM348.689,264.588C347.39,264.588 346.326,263.525 346.326,258.21C346.326,252.894 347.39,252.067 348.689,252.067C349.988,252.067 351.051,252.894 351.051,258.21C351.051,263.525 349.988,264.588 348.689,264.588ZM348.689,268.722C353.177,268.722 356.249,265.178 356.249,258.21C356.249,251.358 353.177,247.815 348.689,247.815C344.2,247.815 341.247,251.358 341.247,258.21C341.247,265.178 344.2,268.722 348.689,268.722ZM339.357,259.745L337.231,259.745L337.231,248.287L330.498,248.287L323.529,260.099L323.529,263.879L332.152,263.879L332.152,268.368L337.231,268.368L337.231,263.879L339.357,263.879L339.357,259.745ZM328.727,259.745L330.617,256.319C331.207,255.138 331.68,253.957 332.27,252.658L332.388,252.658C332.27,254.075 332.152,256.083 332.152,257.501L332.152,259.745L328.727,259.745Z" style="fill:white;fill-rule:nonzero;"/>
        </g>
        <g transform="matrix(1.63037,0,0,1.63037,-145.501,-240.847)">
            <g transform="matrix(12,0,0,12,179.655,348.555)">
                <path d="M0.398,0.01C0.348,0.01 0.301,0.001 0.258,-0.018C0.215,-0.037 0.177,-0.063 0.144,-0.096C0.111,-0.129 0.086,-0.167 0.068,-0.211C0.049,-0.254 0.04,-0.301 0.04,-0.351C0.04,-0.401 0.049,-0.448 0.068,-0.491C0.086,-0.534 0.111,-0.573 0.143,-0.606C0.176,-0.639 0.214,-0.664 0.257,-0.683C0.3,-0.701 0.346,-0.71 0.396,-0.71C0.446,-0.71 0.493,-0.701 0.536,-0.683C0.579,-0.664 0.616,-0.639 0.649,-0.606C0.682,-0.573 0.707,-0.534 0.726,-0.491C0.744,-0.447 0.753,-0.4 0.753,-0.35C0.753,-0.3 0.744,-0.253 0.726,-0.21C0.707,-0.166 0.682,-0.128 0.65,-0.095C0.617,-0.062 0.58,-0.037 0.537,-0.018C0.494,0.001 0.447,0.01 0.398,0.01ZM0.396,-0.1C0.443,-0.1 0.485,-0.111 0.521,-0.132C0.556,-0.153 0.584,-0.183 0.605,-0.221C0.625,-0.258 0.635,-0.302 0.635,-0.351C0.635,-0.388 0.629,-0.421 0.618,-0.452C0.606,-0.482 0.589,-0.508 0.568,-0.531C0.547,-0.553 0.522,-0.57 0.493,-0.582C0.464,-0.594 0.431,-0.6 0.396,-0.6C0.349,-0.6 0.308,-0.59 0.273,-0.569C0.237,-0.548 0.209,-0.518 0.189,-0.481C0.168,-0.444 0.158,-0.4 0.158,-0.351C0.158,-0.314 0.164,-0.281 0.175,-0.25C0.187,-0.219 0.203,-0.192 0.225,-0.17C0.246,-0.148 0.271,-0.131 0.3,-0.118C0.329,-0.106 0.361,-0.1 0.396,-0.1Z" style="fill:rgb(26,31,43);fill-rule:nonzero;"/>
            </g>
        </g>
        <g transform="matrix(1.63037,0,0,1.63037,-145.501,-240.847)">
            <g transform="matrix(12,0,0,12,189.183,348.555)">
                <path d="M0.281,0.01C0.234,0.01 0.192,-0.001 0.154,-0.024C0.116,-0.046 0.086,-0.076 0.064,-0.114C0.041,-0.152 0.03,-0.194 0.03,-0.241C0.03,-0.288 0.041,-0.33 0.064,-0.367C0.086,-0.404 0.116,-0.434 0.154,-0.457C0.192,-0.479 0.234,-0.49 0.281,-0.49C0.328,-0.49 0.371,-0.479 0.409,-0.457C0.447,-0.435 0.477,-0.405 0.5,-0.368C0.522,-0.33 0.533,-0.288 0.533,-0.241C0.533,-0.194 0.522,-0.152 0.5,-0.114C0.477,-0.076 0.447,-0.046 0.409,-0.024C0.371,-0.001 0.328,0.01 0.281,0.01ZM0.281,-0.096C0.308,-0.096 0.333,-0.102 0.354,-0.115C0.375,-0.127 0.391,-0.144 0.403,-0.166C0.414,-0.188 0.42,-0.213 0.42,-0.241C0.42,-0.269 0.414,-0.294 0.402,-0.315C0.39,-0.336 0.374,-0.353 0.353,-0.366C0.332,-0.378 0.308,-0.384 0.281,-0.384C0.254,-0.384 0.231,-0.378 0.21,-0.366C0.189,-0.353 0.172,-0.336 0.161,-0.315C0.149,-0.294 0.143,-0.269 0.143,-0.241C0.143,-0.213 0.149,-0.188 0.161,-0.166C0.172,-0.144 0.189,-0.127 0.21,-0.115C0.231,-0.102 0.254,-0.096 0.281,-0.096Z" style="fill:rgb(26,31,43);fill-rule:nonzero;"/>
            </g>
        </g>
        <g transform="matrix(1.63037,0,0,1.63037,-145.501,-240.847)">
            <g transform="matrix(12,0,0,12,195.939,348.555)">
                <path d="M0.318,0.01C0.281,0.01 0.249,0.002 0.22,-0.014C0.191,-0.029 0.169,-0.051 0.153,-0.078C0.136,-0.105 0.128,-0.136 0.128,-0.171L0.128,-0.309C0.128,-0.344 0.136,-0.375 0.153,-0.402C0.17,-0.429 0.192,-0.451 0.221,-0.467C0.25,-0.482 0.282,-0.49 0.318,-0.49C0.361,-0.49 0.401,-0.479 0.436,-0.457C0.47,-0.434 0.498,-0.404 0.519,-0.367C0.539,-0.329 0.549,-0.286 0.549,-0.239C0.549,-0.192 0.539,-0.15 0.519,-0.113C0.498,-0.075 0.47,-0.045 0.436,-0.023C0.401,-0.001 0.361,0.01 0.318,0.01ZM0.061,0.2L0.061,-0.48L0.171,-0.48L0.171,-0.351L0.152,-0.234L0.171,-0.118L0.171,0.2L0.061,0.2ZM0.3,-0.094C0.327,-0.094 0.35,-0.1 0.371,-0.113C0.391,-0.125 0.407,-0.142 0.419,-0.164C0.43,-0.186 0.436,-0.211 0.436,-0.24C0.436,-0.269 0.43,-0.294 0.419,-0.316C0.407,-0.338 0.391,-0.355 0.371,-0.368C0.35,-0.38 0.327,-0.386 0.3,-0.386C0.273,-0.386 0.25,-0.38 0.229,-0.368C0.208,-0.355 0.192,-0.338 0.181,-0.316C0.17,-0.294 0.164,-0.269 0.164,-0.24C0.164,-0.211 0.17,-0.186 0.181,-0.164C0.192,-0.142 0.208,-0.125 0.229,-0.113C0.25,-0.1 0.273,-0.094 0.3,-0.094Z" style="fill:rgb(26,31,43);fill-rule:nonzero;"/>
            </g>
        </g>
        <g transform="matrix(1.63037,0,0,1.63037,-145.501,-240.847)">
            <g transform="matrix(12,0,0,12,202.899,348.555)">
                <path d="M0.218,0.01C0.191,0.01 0.166,0.006 0.141,-0.001C0.116,-0.008 0.094,-0.018 0.073,-0.031C0.052,-0.043 0.034,-0.059 0.019,-0.078L0.089,-0.148C0.106,-0.129 0.125,-0.114 0.147,-0.105C0.168,-0.095 0.193,-0.09 0.22,-0.09C0.245,-0.09 0.263,-0.094 0.276,-0.101C0.289,-0.108 0.295,-0.119 0.295,-0.133C0.295,-0.148 0.289,-0.159 0.277,-0.167C0.265,-0.175 0.25,-0.182 0.231,-0.188C0.212,-0.193 0.192,-0.199 0.171,-0.205C0.15,-0.211 0.13,-0.219 0.111,-0.23C0.092,-0.24 0.076,-0.254 0.064,-0.272C0.052,-0.29 0.046,-0.313 0.046,-0.342C0.046,-0.373 0.053,-0.399 0.068,-0.421C0.082,-0.443 0.102,-0.46 0.129,-0.472C0.155,-0.484 0.186,-0.49 0.223,-0.49C0.262,-0.49 0.296,-0.483 0.326,-0.469C0.355,-0.456 0.38,-0.435 0.4,-0.408L0.33,-0.338C0.316,-0.355 0.3,-0.368 0.282,-0.377C0.264,-0.386 0.243,-0.39 0.22,-0.39C0.198,-0.39 0.181,-0.387 0.169,-0.38C0.157,-0.373 0.151,-0.364 0.151,-0.351C0.151,-0.338 0.157,-0.327 0.169,-0.32C0.181,-0.313 0.197,-0.306 0.216,-0.301C0.234,-0.296 0.255,-0.29 0.276,-0.283C0.297,-0.277 0.317,-0.269 0.336,-0.258C0.355,-0.247 0.37,-0.232 0.382,-0.214C0.394,-0.195 0.4,-0.171 0.4,-0.142C0.4,-0.095 0.384,-0.058 0.351,-0.031C0.318,-0.004 0.274,0.01 0.218,0.01Z" style="fill:rgb(26,31,43);fill-rule:nonzero;"/>
            </g>
        </g>
        <g transform="matrix(1.63037,0,0,1.63037,-145.501,-240.847)">
            <g transform="matrix(12,0,0,12,208.059,348.555)">
                <path d="M0.145,0.01C0.124,0.01 0.106,0.003 0.093,-0.012C0.079,-0.026 0.072,-0.043 0.072,-0.064C0.072,-0.085 0.079,-0.103 0.093,-0.117C0.106,-0.131 0.124,-0.138 0.145,-0.138C0.166,-0.138 0.184,-0.131 0.198,-0.117C0.211,-0.103 0.218,-0.085 0.218,-0.064C0.218,-0.043 0.211,-0.026 0.198,-0.012C0.184,0.003 0.166,0.01 0.145,0.01Z" style="fill:rgb(26,31,43);fill-rule:nonzero;"/>
            </g>
        </g>
        <g transform="matrix(1.63037,0,0,1.63037,-145.501,-240.847)">
            <g transform="matrix(12,0,0,12,211.539,348.555)">
                <path d="M0.145,0.01C0.124,0.01 0.106,0.003 0.093,-0.012C0.079,-0.026 0.072,-0.043 0.072,-0.064C0.072,-0.085 0.079,-0.103 0.093,-0.117C0.106,-0.131 0.124,-0.138 0.145,-0.138C0.166,-0.138 0.184,-0.131 0.198,-0.117C0.211,-0.103 0.218,-0.085 0.218,-0.064C0.218,-0.043 0.211,-0.026 0.198,-0.012C0.184,0.003 0.166,0.01 0.145,0.01Z" style="fill:rgb(26,31,43);fill-rule:nonzero;"/>
            </g>
        </g>
        <g transform="matrix(1.63037,0,0,1.63037,-145.501,-240.847)">
            <g transform="matrix(12,0,0,12,215.019,348.555)">
                <path d="M0.145,0.01C0.124,0.01 0.106,0.003 0.093,-0.012C0.079,-0.026 0.072,-0.043 0.072,-0.064C0.072,-0.085 0.079,-0.103 0.093,-0.117C0.106,-0.131 0.124,-0.138 0.145,-0.138C0.166,-0.138 0.184,-0.131 0.198,-0.117C0.211,-0.103 0.218,-0.085 0.218,-0.064C0.218,-0.043 0.211,-0.026 0.198,-0.012C0.184,0.003 0.166,0.01 0.145,0.01Z" style="fill:rgb(26,31,43);fill-rule:nonzero;"/>
            </g>
        </g>
        <g transform="matrix(1.63037,0,0,1.63037,-145.501,-240.847)">
            <g transform="matrix(12,0,0,12,220.899,348.555)">
                <path d="M0.155,-0.264L0.155,-0.364L0.33,-0.364C0.354,-0.364 0.375,-0.369 0.394,-0.379C0.412,-0.388 0.426,-0.402 0.437,-0.42C0.448,-0.437 0.453,-0.458 0.453,-0.482C0.453,-0.506 0.448,-0.527 0.437,-0.545C0.426,-0.562 0.412,-0.576 0.394,-0.586C0.375,-0.595 0.354,-0.6 0.33,-0.6L0.155,-0.6L0.155,-0.7L0.336,-0.7C0.38,-0.7 0.42,-0.691 0.455,-0.673C0.49,-0.655 0.517,-0.63 0.538,-0.597C0.558,-0.564 0.568,-0.526 0.568,-0.482C0.568,-0.438 0.558,-0.4 0.538,-0.367C0.517,-0.334 0.49,-0.309 0.455,-0.291C0.42,-0.273 0.38,-0.264 0.336,-0.264L0.155,-0.264ZM0.076,0L0.076,-0.7L0.191,-0.7L0.191,0L0.076,0Z" style="fill:rgb(26,31,43);fill-rule:nonzero;"/>
            </g>
        </g>
        <g transform="matrix(1.63037,0,0,1.63037,-145.501,-240.847)">
            <g transform="matrix(12,0,0,12,227.859,348.555)">
                <path d="M0.262,0.01C0.219,0.01 0.18,-0.001 0.145,-0.023C0.11,-0.045 0.082,-0.075 0.062,-0.113C0.041,-0.15 0.031,-0.192 0.031,-0.239C0.031,-0.286 0.041,-0.329 0.062,-0.367C0.082,-0.404 0.11,-0.434 0.145,-0.457C0.18,-0.479 0.219,-0.49 0.262,-0.49C0.299,-0.49 0.331,-0.482 0.36,-0.467C0.388,-0.451 0.41,-0.429 0.427,-0.402C0.444,-0.375 0.452,-0.344 0.452,-0.309L0.452,-0.171C0.452,-0.136 0.444,-0.105 0.428,-0.078C0.411,-0.051 0.389,-0.029 0.36,-0.014C0.331,0.002 0.299,0.01 0.262,0.01ZM0.28,-0.094C0.321,-0.094 0.354,-0.108 0.379,-0.135C0.404,-0.162 0.416,-0.197 0.416,-0.24C0.416,-0.269 0.41,-0.294 0.399,-0.316C0.388,-0.338 0.372,-0.355 0.352,-0.368C0.331,-0.38 0.307,-0.386 0.28,-0.386C0.253,-0.386 0.23,-0.38 0.21,-0.368C0.189,-0.355 0.173,-0.338 0.162,-0.316C0.15,-0.294 0.144,-0.269 0.144,-0.24C0.144,-0.211 0.15,-0.186 0.162,-0.164C0.173,-0.142 0.189,-0.125 0.21,-0.113C0.23,-0.1 0.253,-0.094 0.28,-0.094ZM0.409,0L0.409,-0.129L0.428,-0.246L0.409,-0.362L0.409,-0.48L0.519,-0.48L0.519,0L0.409,0Z" style="fill:rgb(26,31,43);fill-rule:nonzero;"/>
            </g>
        </g>
        <g transform="matrix(1.63037,0,0,1.63037,-145.501,-240.847)">
            <g transform="matrix(12,0,0,12,234.819,348.555)">
                <path d="M0.261,0.21C0.21,0.21 0.166,0.201 0.128,0.182C0.09,0.164 0.059,0.138 0.036,0.105L0.108,0.033C0.127,0.057 0.149,0.075 0.174,0.087C0.199,0.099 0.228,0.105 0.263,0.105C0.306,0.105 0.341,0.094 0.366,0.071C0.391,0.049 0.404,0.019 0.404,-0.02L0.404,-0.138L0.423,-0.244L0.404,-0.351L0.404,-0.48L0.514,-0.48L0.514,-0.02C0.514,0.026 0.503,0.066 0.482,0.1C0.461,0.135 0.431,0.162 0.393,0.181C0.355,0.2 0.311,0.21 0.261,0.21ZM0.256,-0.01C0.213,-0.01 0.175,-0.021 0.141,-0.042C0.106,-0.063 0.079,-0.091 0.059,-0.128C0.04,-0.165 0.03,-0.206 0.03,-0.251C0.03,-0.296 0.04,-0.337 0.059,-0.373C0.079,-0.409 0.106,-0.438 0.141,-0.459C0.175,-0.48 0.213,-0.49 0.256,-0.49C0.294,-0.49 0.327,-0.482 0.356,-0.467C0.385,-0.452 0.407,-0.431 0.423,-0.404C0.439,-0.377 0.447,-0.345 0.447,-0.309L0.447,-0.191C0.447,-0.156 0.439,-0.124 0.423,-0.097C0.406,-0.07 0.384,-0.048 0.355,-0.033C0.326,-0.018 0.293,-0.01 0.256,-0.01ZM0.278,-0.114C0.305,-0.114 0.328,-0.12 0.348,-0.131C0.368,-0.142 0.384,-0.158 0.395,-0.179C0.406,-0.199 0.411,-0.223 0.411,-0.25C0.411,-0.277 0.406,-0.301 0.395,-0.322C0.384,-0.342 0.368,-0.358 0.348,-0.369C0.328,-0.38 0.305,-0.386 0.278,-0.386C0.251,-0.386 0.228,-0.38 0.207,-0.369C0.187,-0.358 0.171,-0.342 0.16,-0.322C0.149,-0.301 0.143,-0.277 0.143,-0.25C0.143,-0.223 0.149,-0.2 0.16,-0.179C0.171,-0.158 0.187,-0.142 0.207,-0.131C0.228,-0.12 0.251,-0.114 0.278,-0.114Z" style="fill:rgb(26,31,43);fill-rule:nonzero;"/>
            </g>
        </g>
        <g transform="matrix(1.63037,0,0,1.63037,-145.501,-240.847)">
            <g transform="matrix(12,0,0,12,241.719,348.555)">
                <path d="M0.284,0.01C0.236,0.01 0.193,-0.001 0.155,-0.023C0.116,-0.044 0.086,-0.074 0.064,-0.112C0.041,-0.15 0.03,-0.193 0.03,-0.24C0.03,-0.287 0.041,-0.33 0.063,-0.368C0.085,-0.405 0.115,-0.435 0.153,-0.457C0.19,-0.479 0.232,-0.49 0.278,-0.49C0.323,-0.49 0.362,-0.48 0.397,-0.459C0.431,-0.438 0.458,-0.41 0.477,-0.374C0.497,-0.338 0.507,-0.297 0.507,-0.251C0.507,-0.243 0.506,-0.235 0.505,-0.227C0.504,-0.218 0.503,-0.209 0.501,-0.199L0.107,-0.199L0.107,-0.289L0.444,-0.289L0.403,-0.253C0.402,-0.282 0.396,-0.307 0.386,-0.327C0.376,-0.347 0.362,-0.362 0.344,-0.373C0.325,-0.384 0.303,-0.389 0.276,-0.389C0.248,-0.389 0.224,-0.383 0.203,-0.371C0.182,-0.359 0.166,-0.342 0.155,-0.321C0.144,-0.299 0.138,-0.273 0.138,-0.243C0.138,-0.213 0.144,-0.187 0.156,-0.164C0.168,-0.141 0.185,-0.124 0.207,-0.112C0.229,-0.099 0.254,-0.093 0.283,-0.093C0.308,-0.093 0.331,-0.097 0.352,-0.106C0.373,-0.115 0.39,-0.127 0.405,-0.144L0.475,-0.073C0.452,-0.046 0.423,-0.025 0.39,-0.011C0.357,0.003 0.321,0.01 0.284,0.01Z" style="fill:rgb(26,31,43);fill-rule:nonzero;"/>
            </g>
        </g>
        <g transform="matrix(1.63037,0,0,1.63037,-145.501,-240.847)">
            <g transform="matrix(12,0,0,12,250.527,348.555)">
                <path d="M0.076,0L0.076,-0.7L0.156,-0.7L0.191,-0.568L0.191,0L0.076,0ZM0.561,0L0.142,-0.547L0.156,-0.7L0.575,-0.153L0.561,0ZM0.561,0L0.526,-0.123L0.526,-0.7L0.641,-0.7L0.641,0L0.561,0Z" style="fill:rgb(26,31,43);fill-rule:nonzero;"/>
            </g>
        </g>
        <g transform="matrix(1.63037,0,0,1.63037,-145.501,-240.847)">
            <g transform="matrix(12,0,0,12,259.131,348.555)">
                <path d="M0.281,0.01C0.234,0.01 0.192,-0.001 0.154,-0.024C0.116,-0.046 0.086,-0.076 0.064,-0.114C0.041,-0.152 0.03,-0.194 0.03,-0.241C0.03,-0.288 0.041,-0.33 0.064,-0.367C0.086,-0.404 0.116,-0.434 0.154,-0.457C0.192,-0.479 0.234,-0.49 0.281,-0.49C0.328,-0.49 0.371,-0.479 0.409,-0.457C0.447,-0.435 0.477,-0.405 0.5,-0.368C0.522,-0.33 0.533,-0.288 0.533,-0.241C0.533,-0.194 0.522,-0.152 0.5,-0.114C0.477,-0.076 0.447,-0.046 0.409,-0.024C0.371,-0.001 0.328,0.01 0.281,0.01ZM0.281,-0.096C0.308,-0.096 0.333,-0.102 0.354,-0.115C0.375,-0.127 0.391,-0.144 0.403,-0.166C0.414,-0.188 0.42,-0.213 0.42,-0.241C0.42,-0.269 0.414,-0.294 0.402,-0.315C0.39,-0.336 0.374,-0.353 0.353,-0.366C0.332,-0.378 0.308,-0.384 0.281,-0.384C0.254,-0.384 0.231,-0.378 0.21,-0.366C0.189,-0.353 0.172,-0.336 0.161,-0.315C0.149,-0.294 0.143,-0.269 0.143,-0.241C0.143,-0.213 0.149,-0.188 0.161,-0.166C0.172,-0.144 0.189,-0.127 0.21,-0.115C0.231,-0.102 0.254,-0.096 0.281,-0.096Z" style="fill:rgb(26,31,43);fill-rule:nonzero;"/>
            </g>
        </g>
        <g transform="matrix(1.63037,0,0,1.63037,-145.501,-240.847)">
            <g transform="matrix(12,0,0,12,265.719,348.555)">
                <path d="M0.134,0L0.134,-0.68L0.244,-0.68L0.244,0L0.134,0ZM0.019,-0.38L0.019,-0.48L0.359,-0.48L0.359,-0.38L0.019,-0.38Z" style="fill:rgb(26,31,43);fill-rule:nonzero;"/>
            </g>
        </g>
        <g transform="matrix(1.63037,0,0,1.63037,-145.501,-240.847)">
            <g transform="matrix(12,0,0,12,272.655,348.555)">
                <path d="M0.076,0L0.076,-0.7L0.191,-0.7L0.191,0L0.076,0ZM0.155,-0.3L0.155,-0.405L0.511,-0.405L0.511,-0.3L0.155,-0.3ZM0.155,-0.595L0.155,-0.7L0.528,-0.7L0.528,-0.595L0.155,-0.595Z" style="fill:rgb(26,31,43);fill-rule:nonzero;"/>
            </g>
        </g>
        <g transform="matrix(1.63037,0,0,1.63037,-145.501,-240.847)">
            <g transform="matrix(12,0,0,12,279.231,348.555)">
                <path d="M0.281,0.01C0.234,0.01 0.192,-0.001 0.154,-0.024C0.116,-0.046 0.086,-0.076 0.064,-0.114C0.041,-0.152 0.03,-0.194 0.03,-0.241C0.03,-0.288 0.041,-0.33 0.064,-0.367C0.086,-0.404 0.116,-0.434 0.154,-0.457C0.192,-0.479 0.234,-0.49 0.281,-0.49C0.328,-0.49 0.371,-0.479 0.409,-0.457C0.447,-0.435 0.477,-0.405 0.5,-0.368C0.522,-0.33 0.533,-0.288 0.533,-0.241C0.533,-0.194 0.522,-0.152 0.5,-0.114C0.477,-0.076 0.447,-0.046 0.409,-0.024C0.371,-0.001 0.328,0.01 0.281,0.01ZM0.281,-0.096C0.308,-0.096 0.333,-0.102 0.354,-0.115C0.375,-0.127 0.391,-0.144 0.403,-0.166C0.414,-0.188 0.42,-0.213 0.42,-0.241C0.42,-0.269 0.414,-0.294 0.402,-0.315C0.39,-0.336 0.374,-0.353 0.353,-0.366C0.332,-0.378 0.308,-0.384 0.281,-0.384C0.254,-0.384 0.231,-0.378 0.21,-0.366C0.189,-0.353 0.172,-0.336 0.161,-0.315C0.149,-0.294 0.143,-0.269 0.143,-0.241C0.143,-0.213 0.149,-0.188 0.161,-0.166C0.172,-0.144 0.189,-0.127 0.21,-0.115C0.231,-0.102 0.254,-0.096 0.281,-0.096Z" style="fill:rgb(26,31,43);fill-rule:nonzero;"/>
            </g>
        </g>
        <g transform="matrix(1.63037,0,0,1.63037,-145.501,-240.847)">
            <g transform="matrix(12,0,0,12,285.987,348.555)">
                <path d="M0.258,0.01C0.217,0.01 0.181,0.001 0.15,-0.017C0.118,-0.035 0.093,-0.06 0.076,-0.092C0.058,-0.123 0.049,-0.16 0.049,-0.201L0.049,-0.48L0.159,-0.48L0.159,-0.206C0.159,-0.183 0.163,-0.163 0.171,-0.147C0.178,-0.13 0.19,-0.118 0.204,-0.109C0.22,-0.1 0.237,-0.096 0.258,-0.096C0.29,-0.096 0.315,-0.106 0.332,-0.125C0.348,-0.143 0.357,-0.171 0.357,-0.206L0.357,-0.48L0.467,-0.48L0.467,-0.201C0.467,-0.159 0.458,-0.122 0.441,-0.091C0.423,-0.059 0.398,-0.034 0.367,-0.017C0.336,0.001 0.299,0.01 0.258,0.01Z" style="fill:rgb(26,31,43);fill-rule:nonzero;"/>
            </g>
        </g>
        <g transform="matrix(1.63037,0,0,1.63037,-145.501,-240.847)">
            <g transform="matrix(12,0,0,12,292.191,348.555)">
                <path d="M0.39,0L0.39,-0.277C0.39,-0.309 0.38,-0.335 0.36,-0.356C0.339,-0.377 0.313,-0.387 0.281,-0.387C0.26,-0.387 0.241,-0.382 0.224,-0.373C0.207,-0.364 0.194,-0.351 0.185,-0.334C0.176,-0.317 0.171,-0.298 0.171,-0.277L0.128,-0.301C0.128,-0.338 0.136,-0.37 0.152,-0.399C0.168,-0.427 0.19,-0.449 0.219,-0.466C0.247,-0.482 0.279,-0.49 0.314,-0.49C0.35,-0.49 0.382,-0.481 0.41,-0.463C0.438,-0.444 0.46,-0.421 0.476,-0.392C0.492,-0.363 0.5,-0.332 0.5,-0.301L0.5,0L0.39,0ZM0.061,0L0.061,-0.48L0.171,-0.48L0.171,0L0.061,0Z" style="fill:rgb(26,31,43);fill-rule:nonzero;"/>
            </g>
        </g>
        <g transform="matrix(1.63037,0,0,1.63037,-145.501,-240.847)">
            <g transform="matrix(12,0,0,12,298.803,348.555)">
                <path d="M0.262,0.01C0.219,0.01 0.18,-0.001 0.145,-0.023C0.11,-0.045 0.082,-0.075 0.062,-0.113C0.041,-0.15 0.031,-0.192 0.031,-0.239C0.031,-0.286 0.041,-0.329 0.062,-0.367C0.082,-0.404 0.11,-0.434 0.145,-0.457C0.18,-0.479 0.219,-0.49 0.262,-0.49C0.299,-0.49 0.331,-0.482 0.36,-0.467C0.388,-0.451 0.41,-0.429 0.427,-0.402C0.444,-0.375 0.452,-0.344 0.452,-0.309L0.452,-0.171C0.452,-0.136 0.444,-0.105 0.428,-0.078C0.411,-0.051 0.389,-0.029 0.36,-0.014C0.331,0.002 0.299,0.01 0.262,0.01ZM0.28,-0.094C0.307,-0.094 0.331,-0.1 0.352,-0.113C0.372,-0.125 0.388,-0.142 0.399,-0.164C0.41,-0.186 0.416,-0.211 0.416,-0.24C0.416,-0.269 0.41,-0.294 0.399,-0.316C0.388,-0.338 0.372,-0.355 0.352,-0.368C0.331,-0.38 0.308,-0.386 0.281,-0.386C0.254,-0.386 0.23,-0.38 0.21,-0.368C0.189,-0.355 0.173,-0.338 0.162,-0.316C0.15,-0.294 0.144,-0.269 0.144,-0.24C0.144,-0.211 0.15,-0.186 0.162,-0.164C0.173,-0.142 0.189,-0.125 0.21,-0.113C0.23,-0.1 0.253,-0.094 0.28,-0.094ZM0.519,0L0.409,0L0.409,-0.129L0.428,-0.246L0.409,-0.362L0.409,-0.72L0.519,-0.72L0.519,0Z" style="fill:rgb(26,31,43);fill-rule:nonzero;"/>
            </g>
        </g>
    </g>
</svg>
