<svg width="19" height="19" viewBox="0 0 19 19" fill="none" xmlns="http://www.w3.org/2000/svg">
<path d="M15.0417 1.58325H3.95834C3.32845 1.58325 2.72436 1.83347 2.27897 2.27887C1.83357 2.72427 1.58334 3.32836 1.58334 3.95825V4.8845C1.58323 5.21142 1.65061 5.53483 1.78126 5.8345V5.882C1.89311 6.1361 2.05153 6.36703 2.24834 6.56284L7.12501 11.4078V16.6249C7.12474 16.7595 7.15876 16.8918 7.22387 17.0096C7.28897 17.1273 7.383 17.2265 7.49709 17.2978C7.62308 17.3759 7.76846 17.4171 7.91668 17.4166C8.04061 17.4158 8.16263 17.386 8.27293 17.3295L11.4396 15.7462C11.5702 15.6804 11.6799 15.5797 11.7568 15.4554C11.8336 15.331 11.8746 15.1878 11.875 15.0416V11.4078L16.72 6.56284C16.9168 6.36703 17.0752 6.1361 17.1871 5.882V5.8345C17.3287 5.53718 17.4068 5.21366 17.4167 4.8845V3.95825C17.4167 3.32836 17.1665 2.72427 16.7211 2.27887C16.2757 1.83347 15.6716 1.58325 15.0417 1.58325ZM10.5213 10.5212C10.4479 10.5951 10.3898 10.6829 10.3504 10.7793C10.311 10.8758 10.2911 10.9791 10.2917 11.0833V14.5508L8.70834 15.3424V11.0833C8.70895 10.9791 8.68898 10.8758 8.64958 10.7793C8.61018 10.6829 8.55213 10.5951 8.47876 10.5212L4.28293 6.33325H14.7171L10.5213 10.5212ZM15.8333 4.74992H3.16668V3.95825C3.16668 3.74829 3.25008 3.54693 3.39855 3.39846C3.54702 3.24999 3.74838 3.16659 3.95834 3.16659H15.0417C15.2516 3.16659 15.453 3.24999 15.6015 3.39846C15.7499 3.54693 15.8333 3.74829 15.8333 3.95825V4.74992Z" fill="#1A1F2B"/>
</svg>
