<svg width="47" height="47" viewBox="0 0 47 47" fill="none" xmlns="http://www.w3.org/2000/svg">
<path d="M22.7318 31.6868C28.7937 29.4825 33.9829 22.5022 35.8199 19.2876C36.5087 18.2544 38.6441 16.5322 41.675 17.9099C45.4637 19.632 43.0527 21.3542 37.8864 30.3091C32.7201 39.2641 22.7318 40.6418 15.1546 43.7416C7.57728 46.8414 3.78864 42.3639 2.41095 41.3306C1.03327 40.2973 4.13306 37.1975 4.8219 35.8199C5.51075 34.4422 15.1546 34.4422 22.7318 31.6868Z" fill="#57BA28"/>
<path d="M7.23285 34.0977L6.54401 3.44421L7.92169 2.41095L35.131 18.9432C32.8349 21.5838 27.1404 27.7604 22.7318 31.3424C18.3232 34.9244 10.5623 34.6718 7.23285 34.0977Z" fill="#F21B1B"/>
<path d="M15.1355 24.3736C14.6757 24.3736 14.2262 24.51 13.8439 24.7654C13.4616 25.0209 13.1636 25.384 12.9876 25.8088C12.8117 26.2336 12.7656 26.7011 12.8553 27.152C12.9451 27.603 13.1665 28.0173 13.4916 28.3424C13.8167 28.6675 14.231 28.8889 14.682 28.9786C15.1329 29.0684 15.6004 29.0223 16.0252 28.8464C16.45 28.6704 16.8131 28.3724 17.0686 27.9901C17.324 27.6078 17.4604 27.1583 17.4604 26.6985C17.4604 26.0819 17.2154 25.4906 16.7794 25.0546C16.3434 24.6186 15.7521 24.3736 15.1355 24.3736ZM15.1355 13.9583C14.6757 13.9583 14.2262 14.0947 13.8439 14.3501C13.4616 14.6056 13.1636 14.9687 12.9876 15.3935C12.8117 15.8183 12.7656 16.2857 12.8553 16.7367C12.9451 17.1877 13.1665 17.6019 13.4916 17.9271C13.8167 18.2522 14.231 18.4736 14.682 18.5633C15.1329 18.653 15.6004 18.607 16.0252 18.431C16.45 18.2551 16.8131 17.9571 17.0686 17.5748C17.324 17.1925 17.4604 16.743 17.4604 16.2832C17.4604 15.6666 17.2154 15.0752 16.7794 14.6392C16.3434 14.2033 15.7521 13.9583 15.1355 13.9583ZM23.2492 18.608C22.6326 18.608 22.0413 18.8529 21.6053 19.2889C21.1693 19.7249 20.9244 20.3163 20.9244 20.9329V23.2577C20.9244 23.8743 21.1693 24.4656 21.6053 24.9016C22.0413 25.3376 22.6326 25.5825 23.2492 25.5825C23.8658 25.5825 24.4572 25.3376 24.8931 24.9016C25.3291 24.4656 25.5741 23.8743 25.5741 23.2577V20.9329C25.5741 20.3163 25.3291 19.7249 24.8931 19.2889C24.4572 18.8529 23.8658 18.608 23.2492 18.608ZM43.0104 15.2835C42.2084 14.822 41.3226 14.5248 40.4046 14.409C39.4866 14.2933 38.5547 14.3613 37.6633 14.6093C36.7355 14.8578 35.8715 15.3017 35.1292 15.9112L8.16098 0.311471C7.80756 0.107423 7.40666 0 6.99856 0C6.59046 0 6.18956 0.107423 5.83614 0.311471C5.47703 0.513328 5.178 0.806981 4.96967 1.16237C4.76133 1.51777 4.65118 1.92213 4.65047 2.33409V32.9523C3.27847 33.4151 2.08888 34.3016 1.25322 35.4841C0.41756 36.6665 -0.0210002 38.0838 0.00077324 39.5316C0.000126733 41.3496 0.709357 43.096 1.97738 44.3988C3.2454 45.7015 4.97199 46.4577 6.78932 46.5062H8.13773C15.7556 46.4883 23.2332 44.455 29.8112 40.6127C36.3891 36.7704 41.8333 31.256 45.591 24.6294C46.4589 23.0438 46.6773 21.1833 46.2002 19.4398C45.7232 17.6964 44.5879 16.2063 43.0337 15.2835H43.0104ZM9.30016 6.35607L32.2929 19.6309C29.742 23.4372 26.3319 26.5903 22.3379 28.8357C18.3438 31.0811 13.8777 32.3559 9.30016 32.5571V6.35607ZM41.5458 22.351C38.0944 28.432 33.054 33.4598 26.9643 36.8957C20.8746 40.3317 13.9649 42.0465 6.97531 41.8565C6.35872 41.8565 5.76739 41.6115 5.3314 41.1755C4.8954 40.7395 4.65047 40.1482 4.65047 39.5316C4.64865 39.2201 4.70945 38.9114 4.82926 38.6239C4.94907 38.3363 5.12545 38.0758 5.34792 37.8577C5.78468 37.4367 6.36869 37.2031 6.97531 37.2068H8.16098C14.1305 37.2044 19.9924 35.6168 25.1473 32.6064C30.3021 29.5959 34.5652 25.2707 37.5005 20.0727C37.6417 19.8176 37.8345 19.5949 38.0667 19.4188C38.2989 19.2426 38.5653 19.1169 38.8489 19.0497C39.4352 18.8888 40.0611 18.9639 40.5926 19.259C41.126 19.5457 41.5265 20.0292 41.7088 20.6067C41.8912 21.1841 41.841 21.81 41.569 22.351H41.5458Z" fill="#1A1F2B"/>
</svg>
