<svg width="195" height="77" viewBox="0 0 195 77" fill="none" xmlns="http://www.w3.org/2000/svg">
<path d="M36.0382 52.9365C45.6486 49.4726 53.8753 38.5036 56.7877 33.4521C57.8797 31.8285 61.265 29.1222 66.0701 31.2871C72.0766 33.9933 68.2543 36.6996 60.0638 50.7716C51.8733 64.8437 36.0382 67.0087 24.0256 71.8798C12.0128 76.7509 6.00638 69.7148 3.82224 68.0911C1.63811 66.4673 6.55241 61.5962 7.64448 59.4314C8.73656 57.2665 24.0256 57.2665 36.0382 52.9365Z" fill="#57BA28"/>
<path d="M11.4667 56.7251L10.3747 8.55533L12.5588 6.93164L55.6955 32.9109C52.0553 37.0604 43.0275 46.7665 36.0382 52.3953C29.049 58.0242 16.7451 57.6273 11.4667 56.7251Z" fill="#F21B1B"/>
<path d="M23.9953 41.4439C23.2664 41.4439 22.5537 41.6583 21.9476 42.0596C21.3416 42.4611 20.8691 43.0317 20.5901 43.6993C20.3112 44.3668 20.2381 45.1014 20.3804 45.81C20.5227 46.5187 20.8737 47.1698 21.3891 47.6806C21.9045 48.1915 22.5613 48.5394 23.2763 48.6804C23.9912 48.8215 24.7323 48.749 25.4058 48.4726C26.0793 48.1961 26.6549 47.7278 27.06 47.127C27.4649 46.5263 27.6811 45.8199 27.6811 45.0974C27.6811 44.1284 27.2927 43.1992 26.6015 42.5141C25.9103 41.8289 24.9728 41.4439 23.9953 41.4439ZM23.9953 25.077C23.2664 25.077 22.5537 25.2914 21.9476 25.6927C21.3416 26.0942 20.8691 26.6648 20.5901 27.3324C20.3112 27.9999 20.2381 28.7344 20.3804 29.4431C20.5227 30.1518 20.8737 30.8027 21.3891 31.3137C21.9045 31.8246 22.5613 32.1725 23.2763 32.3135C23.9912 32.4544 24.7323 32.3821 25.4058 32.1056C26.0793 31.8292 26.6549 31.3609 27.06 30.7601C27.4649 30.1594 27.6811 29.453 27.6811 28.7305C27.6811 27.7615 27.2927 26.8322 26.6015 26.147C25.9103 25.462 24.9728 25.077 23.9953 25.077ZM36.8585 32.3837C35.881 32.3837 34.9435 32.7686 34.2523 33.4537C33.5611 34.1388 33.1728 35.0682 33.1728 36.0371V39.6904C33.1728 40.6593 33.5611 41.5885 34.2523 42.2737C34.9435 42.9588 35.881 43.3437 36.8585 43.3437C37.836 43.3437 38.7736 42.9588 39.4647 42.2737C40.1559 41.5885 40.5443 40.6593 40.5443 39.6904V36.0371C40.5443 35.0682 40.1559 34.1388 39.4647 33.4537C38.7736 32.7686 37.836 32.3837 36.8585 32.3837ZM68.1872 27.1595C66.9157 26.4343 65.5114 25.9673 64.0561 25.7853C62.6007 25.6035 61.1233 25.7103 59.7101 26.1C58.2392 26.4905 56.8694 27.1881 55.6926 28.1459L12.9381 3.63203C12.3778 3.31138 11.7423 3.14258 11.0953 3.14258C10.4483 3.14258 9.81272 3.31138 9.25242 3.63203C8.6831 3.94924 8.20902 4.41069 7.87874 4.96916C7.54845 5.52765 7.37382 6.16307 7.3727 6.81043V54.9248C5.19757 55.652 3.31164 57.0451 1.98681 58.9033C0.661985 60.7614 -0.033293 62.9885 0.00122587 65.2637C0.000200917 68.1205 1.12459 70.8649 3.13487 72.9121C5.14515 74.9592 7.88242 76.1475 10.7636 76.2237H12.9013C24.9784 76.1956 36.8331 73.0004 47.2617 66.9625C57.69 60.9246 66.3211 52.2591 72.2784 41.8459C73.6544 39.3543 74.0006 36.4306 73.2442 33.6908C72.488 30.9512 70.6881 28.6096 68.2242 27.1595H68.1872ZM14.7442 13.1307L51.1961 33.9911C47.152 39.9725 41.7457 44.9273 35.4137 48.4558C29.0816 51.9843 22.0012 53.9876 14.7442 54.3037V13.1307ZM65.8653 38.2656C60.3936 47.8214 52.4027 55.7221 42.7483 61.1215C33.0939 66.521 22.1395 69.2156 11.0584 68.9171C10.0809 68.9171 9.14342 68.5321 8.45222 67.8469C7.761 67.1618 7.3727 66.2326 7.3727 65.2637C7.36981 64.7742 7.4662 64.2891 7.65614 63.8373C7.84609 63.3853 8.12571 62.976 8.47841 62.6332C9.17083 61.9717 10.0967 61.6046 11.0584 61.6104H12.9381C22.402 61.6066 31.6953 59.1118 39.8677 54.3812C48.0399 49.6504 54.7985 42.8537 59.452 34.6854C59.6759 34.2845 59.9815 33.9346 60.3496 33.6578C60.7178 33.3809 61.1401 33.1834 61.5897 33.0778C62.5192 32.825 63.5115 32.943 64.3541 33.4067C65.1998 33.8573 65.8347 34.617 66.1237 35.5245C66.4129 36.4319 66.3333 37.4154 65.9021 38.2656H65.8653Z" fill="#1A1F2B"/>
<path d="M89.4709 9.40088C89.4709 8.93897 89.4926 8.4878 89.5361 8.04736C89.5794 7.60693 89.6822 7.21485 89.8449 6.8711C90.0074 6.52735 90.2512 6.25342 90.5764 6.04932C90.9016 5.83447 91.3459 5.72705 91.9094 5.72705C92.4837 5.72705 92.9389 5.83447 93.275 6.04932C93.6109 6.25342 93.8602 6.52735 94.0227 6.8711C94.1961 7.21485 94.3045 7.60693 94.3478 8.04736C94.3913 8.4878 94.4128 8.93897 94.4128 9.40088V15.2017H96.2661C96.6238 14.2778 96.9814 13.3701 97.3389 12.4785C97.4906 12.1025 97.6479 11.7158 97.8104 11.3184C97.9729 10.9102 98.1302 10.5127 98.2819 10.126C98.4444 9.73925 98.5961 9.36865 98.7371 9.01417C98.8888 8.64893 99.0296 8.32666 99.1597 8.04736C99.2897 7.74659 99.4253 7.45655 99.566 7.17724C99.7178 6.89795 99.8912 6.65088 100.086 6.43603C100.281 6.22119 100.498 6.04932 100.737 5.92042C100.986 5.79151 101.273 5.72705 101.598 5.72705C101.912 5.72705 102.221 5.77539 102.525 5.87208C102.828 5.96875 103.099 6.11376 103.337 6.30713C103.576 6.50049 103.766 6.73682 103.906 7.01611C104.058 7.29541 104.134 7.61768 104.134 7.98292C104.134 8.26221 104.085 8.59522 103.988 8.98193C103.901 9.35791 103.776 9.7339 103.614 10.1099L100.688 16.9742C101.251 17.1782 101.75 17.5113 102.183 17.9731C102.368 18.1664 102.546 18.4028 102.72 18.6822C102.904 18.9507 103.067 19.2675 103.207 19.6329C103.348 19.9981 103.462 20.417 103.549 20.8897C103.636 21.3516 103.679 21.8725 103.679 22.4527V24.7407C103.679 24.8588 103.722 24.9556 103.809 25.0307C103.896 25.106 103.982 25.1918 104.069 25.2886C104.286 25.5356 104.41 25.7505 104.443 25.9331C104.475 26.1157 104.492 26.266 104.492 26.3842C104.492 26.7709 104.416 27.0932 104.264 27.3511C104.123 27.6088 103.928 27.8183 103.679 27.9795C103.441 28.1406 103.159 28.2534 102.834 28.3179C102.519 28.3823 102.194 28.4145 101.858 28.4145C101.501 28.4145 101.137 28.3609 100.769 28.2534C100.401 28.1459 100.065 27.9849 99.7612 27.7701C99.4578 27.5444 99.2084 27.2652 99.0134 26.9322C98.8292 26.5992 98.7371 26.2125 98.7371 25.772V22.4527C98.7371 21.9907 98.7046 21.561 98.6396 21.1636C98.5744 20.7554 98.4498 20.4062 98.2656 20.1163C98.0814 19.8155 97.8267 19.5845 97.5016 19.4234C97.1764 19.2515 96.7538 19.1655 96.2336 19.1655H94.4128V24.5796C94.4128 25.0523 94.3913 25.5088 94.3478 25.9492C94.3045 26.3897 94.1961 26.7871 94.0227 27.1416C93.8602 27.4853 93.6109 27.7647 93.275 27.9795C92.9389 28.1837 92.4837 28.2856 91.9094 28.2856C91.3459 28.2856 90.9016 28.1837 90.5764 27.9795C90.2512 27.7647 90.0074 27.4853 89.8449 27.1416C89.6822 26.7871 89.5794 26.3897 89.5361 25.9492C89.4926 25.5088 89.4709 25.0523 89.4709 24.5796V9.40088ZM106.266 15.7818C106.266 15.3306 106.287 14.8901 106.331 14.4605C106.385 14.0308 106.499 13.6494 106.672 13.3164C106.845 12.9727 107.095 12.6987 107.42 12.4946C107.745 12.2798 108.184 12.1724 108.737 12.1724C109.289 12.1724 109.728 12.2798 110.053 12.4946C110.378 12.6987 110.628 12.9727 110.801 13.3164C110.975 13.6494 111.083 14.0308 111.126 14.4605C111.18 14.8901 111.207 15.3306 111.207 15.7818V24.6762C111.207 25.1274 111.18 25.5732 111.126 26.0137C111.083 26.4433 110.975 26.83 110.801 27.1739C110.628 27.5068 110.378 27.7754 110.053 27.9795C109.728 28.1837 109.289 28.2856 108.737 28.2856C108.184 28.2856 107.745 28.1837 107.42 27.9795C107.095 27.7754 106.845 27.5068 106.672 27.1739C106.499 26.83 106.385 26.4433 106.331 26.0137C106.287 25.5732 106.266 25.1274 106.266 24.6762V15.7818ZM111.24 8.17626C111.24 9.00342 111.023 9.6211 110.59 10.0293C110.156 10.4268 109.549 10.6255 108.769 10.6255C107.989 10.6255 107.382 10.4268 106.948 10.0293C106.515 9.6211 106.298 9.00342 106.298 8.17626C106.298 7.3169 106.515 6.69386 106.948 6.30713C107.382 5.92041 107.989 5.72705 108.769 5.72705C109.603 5.72705 110.221 5.92041 110.622 6.30713C111.034 6.69386 111.24 7.3169 111.24 8.17626ZM116.135 12.1724V9.33643C116.135 8.88526 116.157 8.44482 116.2 8.01515C116.254 7.58545 116.368 7.2041 116.542 6.8711C116.715 6.52735 116.964 6.25342 117.289 6.04932C117.614 5.83447 118.053 5.72705 118.606 5.72705C119.148 5.72705 119.581 5.83447 119.906 6.04932C120.232 6.25342 120.475 6.52735 120.638 6.8711C120.811 7.2041 120.92 7.58545 120.963 8.01515C121.017 8.44482 121.044 8.88526 121.044 9.33643V12.1724H122.377C122.659 12.1724 122.941 12.1885 123.223 12.2207C123.505 12.2422 123.754 12.3174 123.971 12.4463C124.198 12.5752 124.377 12.7686 124.507 13.0264C124.648 13.2842 124.718 13.644 124.718 14.106C124.718 14.5464 124.648 14.8955 124.507 15.1533C124.377 15.4111 124.198 15.6045 123.971 15.7334C123.754 15.8622 123.505 15.9482 123.223 15.9913C122.941 16.0235 122.659 16.0395 122.377 16.0395H121.044V21.6792C121.044 21.894 121.05 22.125 121.061 22.372C121.082 22.6084 121.142 22.8285 121.239 23.0327C121.337 23.2368 121.483 23.4087 121.678 23.5484C121.873 23.6773 122.15 23.7417 122.507 23.7417C122.898 23.7417 123.228 23.7739 123.499 23.8383C123.781 23.8921 124.008 23.9941 124.182 24.1445C124.366 24.2948 124.502 24.5045 124.588 24.7729C124.675 25.0414 124.718 25.3853 124.718 25.8042C124.718 26.2338 124.615 26.6045 124.41 26.916C124.214 27.2276 123.949 27.4853 123.613 27.6894C123.277 27.8936 122.887 28.044 122.442 28.1406C121.998 28.2372 121.532 28.2856 121.044 28.2856C120.275 28.2856 119.614 28.205 119.061 28.044C118.519 27.8829 118.064 27.6572 117.696 27.3671C117.338 27.0664 117.051 26.7119 116.834 26.3038C116.628 25.8848 116.471 25.4175 116.363 24.9019C116.265 24.3863 116.2 23.833 116.168 23.2421C116.146 22.6406 116.135 22.0122 116.135 21.3569V16.0395H115.225C114.943 16.0395 114.661 16.0235 114.379 15.9913C114.108 15.9482 113.865 15.8622 113.648 15.7334C113.431 15.6045 113.252 15.4111 113.111 15.1533C112.981 14.8955 112.916 14.5464 112.916 14.106C112.916 13.644 112.981 13.2842 113.111 13.0264C113.252 12.7686 113.431 12.5752 113.648 12.4463C113.865 12.3174 114.108 12.2422 114.379 12.2207C114.661 12.1885 114.943 12.1724 115.225 12.1724H116.135ZM130.394 22.7104C130.394 22.8823 130.41 23.1026 130.442 23.3712C130.475 23.6289 130.551 23.8867 130.67 24.1445C130.789 24.3916 130.963 24.6065 131.19 24.7891C131.429 24.9717 131.748 25.063 132.149 25.063C132.626 25.063 133 25.0092 133.271 24.9019C133.542 24.7944 133.742 24.6494 133.873 24.4668C134.003 24.2735 134.084 24.0532 134.116 23.8061C134.149 23.5484 134.165 23.2799 134.165 23.0005C134.165 22.8609 134.187 22.705 134.23 22.5333C134.284 22.3505 134.404 22.1841 134.588 22.0337C134.772 21.8725 135.043 21.7436 135.401 21.647C135.769 21.5395 136.268 21.4859 136.896 21.4859C137.471 21.4859 137.915 21.5503 138.229 21.6792C138.543 21.8081 138.771 21.9639 138.912 22.1465C139.064 22.3183 139.15 22.5009 139.172 22.6943C139.194 22.8769 139.204 23.022 139.204 23.1295C139.204 23.8168 139.096 24.4239 138.879 24.9501C138.674 25.4659 138.392 25.917 138.034 26.3038C137.677 26.6796 137.265 26.9966 136.799 27.2545C136.333 27.5122 135.834 27.7163 135.303 27.8667C134.783 28.0171 134.252 28.1246 133.71 28.189C133.168 28.2534 132.648 28.2856 132.149 28.2856C131.293 28.2856 130.464 28.1728 129.662 27.9473C128.86 27.7217 128.145 27.3671 127.516 26.8838C126.899 26.4004 126.4 25.7827 126.021 25.0307C125.642 24.2681 125.452 23.355 125.452 22.2914V18.5209C125.452 17.5005 125.571 16.6357 125.809 15.9268C126.059 15.2178 126.378 14.627 126.769 14.1543C127.159 13.6816 127.598 13.3164 128.085 13.0586C128.573 12.79 129.066 12.5913 129.565 12.4624C130.063 12.3335 130.535 12.2529 130.979 12.2207C131.434 12.1885 131.824 12.1724 132.149 12.1724C133.114 12.1724 133.954 12.2529 134.669 12.4141C135.395 12.5752 136.018 12.79 136.539 13.0586C137.059 13.3272 137.487 13.6387 137.823 13.9932C138.17 14.3369 138.44 14.7022 138.636 15.0889C138.831 15.4756 138.966 15.8622 139.042 16.249C139.129 16.6357 139.172 16.9956 139.172 17.3285C139.172 17.5005 139.161 17.7046 139.139 17.9409C139.118 18.1664 139.031 18.3867 138.879 18.6016C138.739 18.8057 138.511 18.9829 138.197 19.1333C137.882 19.2837 137.438 19.3588 136.864 19.3588C136.658 19.3588 136.398 19.3535 136.083 19.3428C135.78 19.3213 135.482 19.2622 135.189 19.1655C134.897 19.0689 134.647 18.9185 134.441 18.7144C134.236 18.5103 134.133 18.2202 134.133 17.8443C134.133 17.5864 134.116 17.3394 134.084 17.103C134.062 16.856 133.986 16.641 133.856 16.4584C133.726 16.2758 133.526 16.1308 133.255 16.0235C132.995 15.9053 132.626 15.8462 132.149 15.8462C131.748 15.8462 131.429 15.9106 131.19 16.0395C130.963 16.1685 130.789 16.3296 130.67 16.5229C130.551 16.7163 130.475 16.9204 130.442 17.1353C130.41 17.3501 130.394 17.5435 130.394 17.7153V22.7104ZM153.886 24.644C153.886 25.0952 153.859 25.541 153.805 25.9815C153.761 26.4111 153.653 26.7978 153.479 27.1416C153.317 27.4853 153.073 27.7647 152.748 27.9795C152.423 28.1837 151.978 28.2856 151.415 28.2856C150.851 28.2856 150.402 28.1837 150.066 27.9795C149.741 27.7647 149.486 27.4853 149.302 27.1416C149.128 26.7978 149.014 26.4111 148.96 25.9815C148.906 25.541 148.879 25.0952 148.879 24.644V18.2954C148.879 18.016 148.868 17.7421 148.846 17.4736C148.825 17.1943 148.765 16.9473 148.668 16.7323C148.57 16.5175 148.424 16.3458 148.229 16.2168C148.044 16.0772 147.784 16.0073 147.448 16.0073C147.015 16.0073 146.663 16.1523 146.392 16.4424C146.121 16.7217 145.904 17.1137 145.741 17.6186C145.59 18.1128 145.481 18.7035 145.416 19.391C145.362 20.0679 145.335 20.7984 145.335 21.5826V24.644C145.335 25.0952 145.308 25.541 145.254 25.9815C145.21 26.4111 145.102 26.7978 144.929 27.1416C144.755 27.4853 144.501 27.7647 144.165 27.9795C143.829 28.1837 143.374 28.2856 142.799 28.2856C142.236 28.2856 141.791 28.1837 141.466 27.9795C141.141 27.7647 140.892 27.4853 140.718 27.1416C140.556 26.7978 140.447 26.4111 140.393 25.9815C140.35 25.541 140.328 25.0952 140.328 24.644V9.36865C140.328 8.91747 140.35 8.47705 140.393 8.04736C140.447 7.60693 140.556 7.21485 140.718 6.8711C140.892 6.52735 141.141 6.25342 141.466 6.04932C141.791 5.83447 142.236 5.72705 142.799 5.72705C143.374 5.72705 143.829 5.83447 144.165 6.04932C144.501 6.25342 144.755 6.52735 144.929 6.8711C145.102 7.21485 145.21 7.60693 145.254 8.04736C145.308 8.47705 145.335 8.91747 145.335 9.36865V14.8794C145.433 14.5679 145.574 14.251 145.758 13.9287C145.942 13.6064 146.18 13.3164 146.473 13.0586C146.766 12.8008 147.107 12.5913 147.497 12.4302C147.898 12.2583 148.359 12.1724 148.879 12.1724C149.475 12.1724 150.071 12.2744 150.667 12.4785C151.274 12.6719 151.811 12.9941 152.276 13.4453C152.753 13.8965 153.138 14.4927 153.431 15.2339C153.734 15.9644 153.886 16.8667 153.886 17.9409V24.644ZM168.502 19.1011C168.502 19.2729 168.491 19.477 168.469 19.7133C168.448 19.939 168.361 20.1592 168.209 20.374C168.069 20.5781 167.841 20.7554 167.527 20.9057C167.212 21.0561 166.768 21.1314 166.194 21.1314H159.724V22.6782C159.724 22.936 159.756 23.2046 159.821 23.4838C159.886 23.7632 159.995 24.0209 160.146 24.2573C160.309 24.4936 160.52 24.6871 160.78 24.8375C161.04 24.9878 161.36 25.063 161.739 25.063C162.173 25.063 162.503 25.0147 162.731 24.9179C162.969 24.8106 163.153 24.6816 163.283 24.5312C163.424 24.3808 163.55 24.2197 163.657 24.0478C163.767 23.8759 163.908 23.7148 164.081 23.5644C164.265 23.4141 164.513 23.2905 164.829 23.1939C165.154 23.0864 165.598 23.0327 166.161 23.0327C166.432 23.0327 166.692 23.0542 166.942 23.0971C167.202 23.1402 167.429 23.2208 167.624 23.3389C167.819 23.457 167.976 23.6235 168.096 23.8383C168.215 24.0425 168.274 24.311 168.274 24.644C168.274 25.3424 168.052 25.9277 167.608 26.4004C167.164 26.8622 166.606 27.2329 165.934 27.5122C165.262 27.7914 164.531 27.9902 163.74 28.1084C162.958 28.2266 162.227 28.2856 161.544 28.2856C160.645 28.275 159.789 28.1621 158.976 27.9473C158.163 27.7323 157.443 27.3887 156.814 26.916C156.196 26.4433 155.703 25.8257 155.335 25.063C154.966 24.3003 154.782 23.3657 154.782 22.2592V18.4887C154.782 17.4682 154.901 16.6035 155.139 15.8945C155.389 15.1855 155.708 14.5947 156.099 14.1221C156.489 13.6494 156.928 13.2842 157.415 13.0264C157.903 12.7578 158.396 12.5591 158.895 12.4302C159.393 12.3013 159.865 12.2207 160.309 12.1885C160.764 12.1563 161.154 12.1401 161.479 12.1401C162.575 12.1401 163.507 12.2368 164.276 12.4302C165.056 12.6235 165.706 12.876 166.226 13.1875C166.747 13.499 167.158 13.8589 167.462 14.2671C167.765 14.6753 167.993 15.0996 168.144 15.54C168.296 15.9697 168.394 16.4102 168.437 16.8614C168.48 17.3018 168.502 17.7153 168.502 18.102V19.1011ZM159.724 18.7144H163.787C163.787 18.2095 163.771 17.7637 163.74 17.3769C163.718 16.9795 163.637 16.6465 163.496 16.378C163.366 16.1094 163.153 15.9053 162.861 15.7656C162.579 15.626 162.173 15.5561 161.642 15.5561C161.198 15.5561 160.845 15.626 160.585 15.7656C160.336 15.9053 160.146 16.0826 160.016 16.2974C159.886 16.5015 159.805 16.7217 159.773 16.958C159.74 17.1943 159.724 17.4038 159.724 17.5864V18.7144ZM183.574 24.6118C183.574 25.0738 183.546 25.525 183.492 25.9653C183.438 26.4057 183.319 26.7978 183.135 27.1416C182.961 27.4853 182.707 27.7647 182.371 27.9795C182.046 28.1837 181.601 28.2856 181.038 28.2856C180.484 28.2856 180.045 28.1837 179.72 27.9795C179.395 27.7647 179.146 27.4853 178.974 27.1416C178.799 26.7978 178.687 26.4057 178.631 25.9653C178.588 25.525 178.566 25.0738 178.566 24.6118V18.3277C178.566 18.0269 178.55 17.7315 178.519 17.4414C178.496 17.1514 178.436 16.8989 178.339 16.6841C178.241 16.4584 178.095 16.2812 177.9 16.1523C177.716 16.0126 177.461 15.9429 177.136 15.9429C176.692 15.9429 176.334 16.0879 176.063 16.378C175.792 16.6679 175.576 17.0655 175.413 17.5704C175.261 18.0751 175.158 18.6713 175.104 19.3588C175.05 20.0356 175.023 20.766 175.023 21.5503V24.6118C175.023 25.0738 174.996 25.525 174.942 25.9653C174.888 26.4057 174.768 26.7978 174.584 27.1416C174.411 27.4853 174.156 27.7647 173.82 27.9795C173.495 28.1837 173.051 28.2856 172.486 28.2856C171.935 28.2856 171.495 28.1837 171.17 27.9795C170.845 27.7647 170.596 27.4853 170.422 27.1416C170.249 26.7978 170.135 26.4057 170.081 25.9653C170.037 25.525 170.016 25.0738 170.016 24.6118V15.814C170.016 15.3521 170.032 14.9063 170.065 14.4766C170.097 14.0361 170.195 13.6494 170.357 13.3164C170.52 12.9727 170.763 12.6987 171.09 12.4946C171.424 12.2798 171.89 12.1724 172.486 12.1724C173.082 12.1724 173.548 12.2744 173.885 12.4785C174.221 12.6719 174.47 12.9082 174.633 13.1875C174.806 13.4668 174.915 13.7622 174.958 14.0737C175.001 14.3853 175.023 14.6538 175.023 14.8794C175.11 14.5679 175.245 14.251 175.429 13.9287C175.614 13.6064 175.847 13.3164 176.128 13.0586C176.421 12.8008 176.768 12.5913 177.168 12.4302C177.569 12.2583 178.035 12.1724 178.566 12.1724C179.162 12.1724 179.758 12.269 180.354 12.4624C180.951 12.6558 181.488 12.978 181.964 13.4292C182.441 13.8804 182.826 14.4712 183.118 15.2017C183.422 15.9322 183.574 16.8345 183.574 17.9087V24.6118ZM191.005 25.6109C191.005 26.5239 190.772 27.2007 190.306 27.641C189.84 28.0708 189.183 28.2856 188.338 28.2856C187.471 28.2856 186.805 28.0708 186.339 27.641C185.873 27.2007 185.64 26.5239 185.64 25.6109C185.64 24.6871 185.873 24.0156 186.339 23.5967C186.805 23.1777 187.471 22.9682 188.338 22.9682C189.239 22.9682 189.905 23.1777 190.337 23.5967C190.783 24.0156 191.005 24.6871 191.005 25.6109Z" fill="#1A1F2B"/>
<path d="M100.968 33C102.785 33 104.345 33.2046 105.65 33.6138C106.971 34.023 108.077 34.5551 108.969 35.2097C109.877 35.8646 110.604 36.6094 111.149 37.4442C111.694 38.2627 112.107 39.0975 112.388 39.9487C112.685 40.7998 112.875 41.6183 112.957 42.4041C113.056 43.1898 113.106 43.8691 113.106 44.4419C113.106 44.6875 113.081 44.9903 113.032 45.3505C112.999 45.6942 112.858 46.0298 112.61 46.3571C112.363 46.6845 111.966 46.9628 111.421 47.1919C110.893 47.4212 110.133 47.5357 109.143 47.5357C108.812 47.5357 108.399 47.5194 107.904 47.4867C107.409 47.4375 106.93 47.3311 106.467 47.1674C106.005 46.9873 105.609 46.7418 105.278 46.4308C104.948 46.1034 104.783 45.6533 104.783 45.0804C104.783 44.1964 104.725 43.4025 104.609 42.6987C104.51 41.9949 104.32 41.3974 104.04 40.9062C103.759 40.4153 103.371 40.0387 102.875 39.7768C102.38 39.5148 101.744 39.3839 100.968 39.3839C100.159 39.3839 99.5312 39.5558 99.0854 39.8995C98.6561 40.227 98.3422 40.587 98.144 40.9799C97.9128 41.4546 97.7808 41.9867 97.7476 42.576V58.1429C97.7808 58.863 97.9128 59.4933 98.144 60.0334C98.3422 60.5082 98.6561 60.9419 99.0854 61.3347C99.5312 61.7276 100.159 61.924 100.968 61.924C101.744 61.924 102.38 61.7686 102.875 61.4576C103.371 61.1301 103.759 60.6964 104.04 60.1562C104.32 59.6161 104.51 58.9941 104.609 58.2903C104.725 57.5863 104.783 56.8497 104.783 56.0804C104.783 55.8347 104.824 55.5811 104.907 55.3192C104.989 55.0574 105.179 54.8199 105.476 54.6071C105.774 54.378 106.211 54.1898 106.789 54.0424C107.367 53.8951 108.152 53.8214 109.143 53.8214C110.133 53.8214 110.893 53.936 111.421 54.1653C111.966 54.378 112.363 54.6317 112.61 54.9263C112.858 55.2046 112.999 55.4829 113.032 55.7612C113.081 56.023 113.106 56.1949 113.106 56.2768C113.106 58.0773 112.8 59.6898 112.189 61.1138C111.578 62.5216 110.711 63.7166 109.588 64.6987C108.482 65.6808 107.153 66.4337 105.6 66.9576C104.064 67.465 102.372 67.7188 100.522 67.7188C100.225 67.7188 99.7378 67.6942 99.0606 67.6451C98.4 67.5959 97.657 67.465 96.8311 67.2523C96.0055 67.0395 95.1549 66.7202 94.2798 66.2946C93.4045 65.8691 92.6036 65.2798 91.8769 64.5268C91.1668 63.7574 90.5805 62.8081 90.1182 61.6786C89.6558 60.5327 89.4245 59.1413 89.4245 57.5045V43.8036C89.4245 42.4613 89.5897 41.2745 89.9201 40.2433C90.2503 39.212 90.6796 38.3199 91.208 37.5669C91.7531 36.7977 92.3723 36.1592 93.0659 35.6518C93.7595 35.128 94.4696 34.6942 95.1963 34.3505C96.8808 33.5648 98.8046 33.1146 100.968 33ZM132.243 46.701C132.243 47.9776 131.921 48.9107 131.277 49.5C130.65 50.0893 129.75 50.3839 128.577 50.3839C128.412 50.3839 128.173 50.4003 127.859 50.4331C127.562 50.4495 127.24 50.5148 126.893 50.6295C126.546 50.7276 126.191 50.8832 125.827 51.0959C125.481 51.2924 125.159 51.5707 124.862 51.9308C124.564 52.2745 124.325 52.7166 124.143 53.2567C123.961 53.7969 123.871 54.4434 123.871 55.1964V62.2188C123.871 62.8898 123.829 63.5446 123.747 64.1831C123.681 64.8214 123.516 65.3944 123.251 65.9018C122.987 66.3929 122.607 66.7939 122.112 67.1049C121.616 67.4159 120.948 67.5714 120.105 67.5714C119.28 67.5714 118.627 67.4159 118.148 67.1049C117.67 66.7939 117.298 66.3929 117.034 65.9018C116.786 65.3944 116.621 64.8214 116.538 64.1831C116.472 63.5446 116.439 62.8898 116.439 62.2188V48.4688C116.439 47.7812 116.472 47.1183 116.538 46.4799C116.621 45.8252 116.786 45.2441 117.034 44.7367C117.298 44.2291 117.67 43.8281 118.148 43.5334C118.627 43.2225 119.28 43.0669 120.105 43.0669C120.948 43.0669 121.592 43.2551 122.038 43.6317C122.5 43.9918 122.838 44.4666 123.053 45.0558C123.268 45.6288 123.392 46.2753 123.425 46.9955C123.458 47.6995 123.474 48.387 123.474 49.0581H123.871C124.102 48.1413 124.407 47.3148 124.787 46.5781C125.167 45.8252 125.588 45.1949 126.051 44.6875C126.513 44.1637 127.008 43.7627 127.537 43.4844C128.065 43.2061 128.594 43.0669 129.122 43.0669C129.766 43.0669 130.286 43.1406 130.683 43.288C131.096 43.4189 131.418 43.6317 131.649 43.9263C131.88 44.2209 132.037 44.5975 132.119 45.0558C132.202 45.5141 132.243 46.0625 132.243 46.701ZM153.858 62.0224C153.858 62.7097 153.833 63.3891 153.784 64.0602C153.734 64.715 153.585 65.3043 153.338 65.8281C153.09 66.352 152.718 66.7775 152.223 67.1049C151.727 67.4159 151.034 67.5714 150.142 67.5714C149.234 67.5714 148.524 67.424 148.012 67.1295C147.5 66.8184 147.12 66.4502 146.872 66.0245C146.624 65.5826 146.468 65.1242 146.402 64.6495C146.352 64.1748 146.327 63.7738 146.327 63.4464C146.179 63.9212 145.964 64.4041 145.683 64.8951C145.419 65.3862 145.072 65.8281 144.643 66.2209C144.213 66.6138 143.693 66.9413 143.082 67.2031C142.488 67.4487 141.786 67.5714 140.977 67.5714C140.068 67.5714 139.16 67.424 138.252 67.1295C137.344 66.8347 136.526 66.3438 135.799 65.6562C135.073 64.9688 134.478 64.0766 134.016 62.9799C133.57 61.8668 133.347 60.5 133.347 58.8795V51.7589C133.347 50.122 133.57 48.7551 134.016 47.6584C134.478 46.5454 135.073 45.6533 135.799 44.9821C136.526 44.2946 137.344 43.8036 138.252 43.5089C139.16 43.2143 140.068 43.0669 140.977 43.0669C141.786 43.0669 142.488 43.1898 143.082 43.4352C143.693 43.6808 144.213 44 144.643 44.3929C145.072 44.7857 145.419 45.2276 145.683 45.7188C145.964 46.2097 146.179 46.701 146.327 47.1919C146.327 46.3735 146.443 45.6942 146.674 45.1541C146.905 44.6138 147.203 44.1883 147.566 43.8773C147.929 43.5498 148.334 43.3288 148.78 43.2143C149.242 43.0834 149.696 43.0179 150.142 43.0179C150.968 43.0179 151.628 43.1816 152.124 43.5089C152.619 43.8199 152.991 44.2373 153.238 44.7612C153.503 45.2686 153.668 45.8661 153.734 46.5536C153.816 47.2247 153.858 47.9122 153.858 48.6161V62.0224ZM140.977 58.2411C140.977 58.6831 140.993 59.1168 141.026 59.5424C141.059 59.9681 141.15 60.3526 141.299 60.6964C141.447 61.0403 141.662 61.3184 141.943 61.5312C142.24 61.7276 142.645 61.826 143.156 61.826C143.801 61.826 144.321 61.6867 144.717 61.4084C145.13 61.1138 145.452 60.6719 145.683 60.0826C145.914 59.477 146.071 58.724 146.154 57.8237C146.253 56.9069 146.311 55.8184 146.327 54.5581C146.327 54.0505 146.278 53.4694 146.179 52.8148C146.096 52.1436 145.939 51.5133 145.708 50.924C145.477 50.3347 145.155 49.8355 144.742 49.4263C144.329 49.0171 143.801 48.8125 143.156 48.8125C142.645 48.8125 142.24 48.9189 141.943 49.1317C141.662 49.3281 141.447 49.59 141.299 49.9174C141.15 50.2449 141.059 50.6212 141.026 51.0469C140.993 51.4561 140.977 51.8735 140.977 52.299V58.2411ZM168.983 43.0179C169.395 43.0179 169.816 43.0424 170.246 43.0916C170.674 43.1406 171.055 43.2633 171.384 43.4597C171.732 43.6562 172.012 43.9591 172.228 44.3683C172.442 44.7775 172.55 45.3423 172.55 46.0625C172.55 46.7337 172.442 47.2656 172.228 47.6584C172.012 48.035 171.732 48.3296 171.384 48.5424C171.055 48.7388 170.674 48.8699 170.246 48.9352C169.816 48.9844 169.395 49.0089 168.983 49.0089H167.495V62.0224C167.495 62.7426 167.454 63.4383 167.372 64.1094C167.305 64.7641 167.132 65.3534 166.852 65.8773C166.587 66.3847 166.191 66.7939 165.663 67.1049C165.151 67.4159 164.458 67.5714 163.581 67.5714C162.739 67.5714 162.07 67.4159 161.576 67.1049C161.097 66.7939 160.734 66.3847 160.485 65.8773C160.238 65.3534 160.081 64.7641 160.014 64.1094C159.949 63.4383 159.916 62.7426 159.916 62.0224V49.0089H158.529C158.066 49.0089 157.62 48.9844 157.191 48.9352C156.778 48.8699 156.407 48.7388 156.076 48.5424C155.763 48.3296 155.506 48.035 155.308 47.6584C155.11 47.2656 155.011 46.7337 155.011 46.0625C155.011 45.3423 155.11 44.7775 155.308 44.3683C155.506 43.9591 155.763 43.6562 156.076 43.4597C156.407 43.2633 156.778 43.1406 157.191 43.0916C157.62 43.0424 158.066 43.0179 158.529 43.0179H159.916C159.916 41.5773 159.982 40.2515 160.114 39.0403C160.246 37.8288 160.567 36.7977 161.08 35.9464C161.592 35.0788 162.351 34.4077 163.359 33.9331C164.366 33.4419 165.745 33.1964 167.495 33.1964C168.239 33.1964 168.941 33.262 169.601 33.3929C170.262 33.5238 170.841 33.7284 171.335 34.0067C171.831 34.285 172.218 34.6533 172.499 35.1117C172.797 35.5536 172.946 36.0938 172.946 36.7321C172.946 37.3214 172.838 37.8125 172.624 38.2054C172.426 38.5982 172.177 38.9174 171.881 39.163C171.583 39.4084 171.253 39.5804 170.89 39.6786C170.543 39.7768 170.221 39.826 169.923 39.826C169.675 39.826 169.444 39.7686 169.23 39.6541C169.016 39.5395 168.767 39.4821 168.486 39.4821C168.255 39.4821 168.074 39.5558 167.941 39.7031C167.827 39.8505 167.727 40.0469 167.645 40.2924C167.578 40.538 167.537 40.8081 167.521 41.1026C167.503 41.3974 167.495 41.6919 167.495 41.9867V43.0179H168.983ZM178.458 43.0179V38.6964C178.458 38.0089 178.492 37.3378 178.558 36.6831C178.641 36.0283 178.813 35.4472 179.078 34.9398C179.343 34.4159 179.722 33.9985 180.218 33.6875C180.713 33.3602 181.382 33.1964 182.224 33.1964C183.05 33.1964 183.711 33.3602 184.205 33.6875C184.701 33.9985 185.072 34.4159 185.32 34.9398C185.585 35.4472 185.749 36.0283 185.816 36.6831C185.898 37.3378 185.94 38.0089 185.94 38.6964V43.0179H187.971C188.4 43.0179 188.83 43.0424 189.259 43.0916C189.689 43.1242 190.068 43.2388 190.398 43.4352C190.745 43.6317 191.018 43.9263 191.216 44.3192C191.431 44.712 191.538 45.2604 191.538 45.9643C191.538 46.6354 191.431 47.1674 191.216 47.5602C191.018 47.9531 190.745 48.2477 190.398 48.4442C190.068 48.6406 189.689 48.7716 189.259 48.837C188.83 48.8862 188.4 48.9107 187.971 48.9107H185.94V57.5045C185.94 57.8319 185.948 58.1837 185.965 58.5602C185.997 58.9204 186.089 59.2559 186.236 59.5669C186.385 59.878 186.609 60.1398 186.905 60.3526C187.203 60.549 187.623 60.6474 188.169 60.6474C188.763 60.6474 189.267 60.6964 189.68 60.7946C190.109 60.8765 190.456 61.0319 190.721 61.2612C191.002 61.4903 191.208 61.8095 191.339 62.2188C191.473 62.628 191.538 63.1518 191.538 63.7903C191.538 64.4449 191.381 65.0097 191.067 65.4844C190.77 65.9591 190.366 66.352 189.854 66.663C189.342 66.974 188.747 67.2031 188.07 67.3505C187.393 67.4977 186.683 67.5714 185.94 67.5714C184.766 67.5714 183.76 67.4487 182.918 67.2031C182.092 66.9576 181.398 66.6138 180.836 66.1719C180.291 65.7135 179.853 65.1734 179.524 64.5513C179.21 63.913 178.97 63.201 178.806 62.4153C178.656 61.6295 178.558 60.7865 178.507 59.8862C178.476 58.9694 178.458 58.012 178.458 57.0133V48.9107H177.071C176.641 48.9107 176.213 48.8862 175.784 48.837C175.37 48.7716 174.999 48.6406 174.669 48.4442C174.338 48.2477 174.065 47.9531 173.851 47.5602C173.653 47.1674 173.553 46.6354 173.553 45.9643C173.553 45.2604 173.653 44.712 173.851 44.3192C174.065 43.9263 174.338 43.6317 174.669 43.4352C174.999 43.2388 175.37 43.1242 175.784 43.0916C176.213 43.0424 176.641 43.0179 177.071 43.0179H178.458Z" fill="#1A1F2B"/>
</svg>
